<mxfile host="65bd71144e">
    <diagram id="9tg3SJVjGoA6f0Xj8tDZ" name="Approval">
        <mxGraphModel dx="816" dy="475" grid="1" gridSize="10" guides="1" tooltips="1" connect="1" arrows="1" fold="1" page="1" pageScale="1" pageWidth="850" pageHeight="1100" math="0" shadow="0">
            <root>
                <mxCell id="0"/>
                <mxCell id="1" parent="0"/>
                <mxCell id="84" value="Flow Proces Approval" style="swimlane;whiteSpace=wrap;html=1;fontStyle=0" parent="1" vertex="1">
                    <mxGeometry x="10" y="10" width="1630" height="1080" as="geometry"/>
                </mxCell>
                <mxCell id="86" value="User" style="swimlane;whiteSpace=wrap;html=1;" parent="84" vertex="1">
                    <mxGeometry y="23" width="180" height="1057" as="geometry"/>
                </mxCell>
                <mxCell id="103" value="" style="edgeStyle=none;html=1;" parent="86" source="87" edge="1">
                    <mxGeometry relative="1" as="geometry">
                        <mxPoint x="126" y="137" as="targetPoint"/>
                    </mxGeometry>
                </mxCell>
                <mxCell id="87" value="Start" style="ellipse;whiteSpace=wrap;html=1;" parent="86" vertex="1">
                    <mxGeometry x="93.75" y="57" width="64.5" height="43" as="geometry"/>
                </mxCell>
                <mxCell id="112" style="edgeStyle=orthogonalEdgeStyle;html=1;entryX=0.5;entryY=0;entryDx=0;entryDy=0;" parent="86" source="109" target="111" edge="1">
                    <mxGeometry relative="1" as="geometry"/>
                </mxCell>
                <mxCell id="109" value="Fill/Edit Document&lt;br&gt;BizReq / CRF" style="whiteSpace=wrap;html=1;" parent="86" vertex="1">
                    <mxGeometry x="81" y="137" width="86" height="63" as="geometry"/>
                </mxCell>
                <mxCell id="ypjLtqxXZrKwEnutw4x--227" value="No" style="edgeStyle=orthogonalEdgeStyle;html=1;entryX=0.5;entryY=0;entryDx=0;entryDy=0;" parent="86" source="111" target="ypjLtqxXZrKwEnutw4x--226" edge="1">
                    <mxGeometry relative="1" as="geometry"/>
                </mxCell>
                <mxCell id="111" value="Is Submit?" style="rhombus;whiteSpace=wrap;html=1;" parent="86" vertex="1">
                    <mxGeometry x="84" y="237" width="80" height="80" as="geometry"/>
                </mxCell>
                <mxCell id="xz77Pq4-CmndNSfmN_N1-171" style="edgeStyle=orthogonalEdgeStyle;html=1;" parent="86" source="xz77Pq4-CmndNSfmN_N1-155" target="109" edge="1">
                    <mxGeometry relative="1" as="geometry"/>
                </mxCell>
                <mxCell id="xz77Pq4-CmndNSfmN_N1-155" value="A" style="ellipse;whiteSpace=wrap;html=1;aspect=fixed;" parent="86" vertex="1">
                    <mxGeometry x="8" y="145.25" width="46.5" height="46.5" as="geometry"/>
                </mxCell>
                <mxCell id="ypjLtqxXZrKwEnutw4x--226" value="E" style="ellipse;whiteSpace=wrap;html=1;aspect=fixed;" parent="86" vertex="1">
                    <mxGeometry x="100.75" y="367" width="46.5" height="46.5" as="geometry"/>
                </mxCell>
                <mxCell id="88" value="SM User" style="swimlane;whiteSpace=wrap;html=1;fontStyle=0" parent="84" vertex="1">
                    <mxGeometry x="180" y="23" width="180" height="1057" as="geometry"/>
                </mxCell>
                <mxCell id="ypjLtqxXZrKwEnutw4x--158" style="edgeStyle=orthogonalEdgeStyle;html=1;" parent="88" source="122" target="ypjLtqxXZrKwEnutw4x--157" edge="1">
                    <mxGeometry relative="1" as="geometry"/>
                </mxCell>
                <mxCell id="122" value="Notification" style="whiteSpace=wrap;html=1;" parent="88" vertex="1">
                    <mxGeometry x="47" y="67.5" width="86" height="63" as="geometry"/>
                </mxCell>
                <mxCell id="ypjLtqxXZrKwEnutw4x--247" style="edgeStyle=orthogonalEdgeStyle;html=1;" parent="88" source="XCBeeGY5s5GbqxmyynjP-174" target="ypjLtqxXZrKwEnutw4x--246" edge="1">
                    <mxGeometry relative="1" as="geometry"/>
                </mxCell>
                <mxCell id="XCBeeGY5s5GbqxmyynjP-174" value="Notification" style="whiteSpace=wrap;html=1;" parent="88" vertex="1">
                    <mxGeometry x="47" y="616.5" width="86" height="63" as="geometry"/>
                </mxCell>
                <mxCell id="ypjLtqxXZrKwEnutw4x--251" value="" style="edgeStyle=orthogonalEdgeStyle;html=1;" parent="88" source="XCBeeGY5s5GbqxmyynjP-176" target="ypjLtqxXZrKwEnutw4x--249" edge="1">
                    <mxGeometry relative="1" as="geometry"/>
                </mxCell>
                <mxCell id="eLMHC3e-D2YK2D7sLZK2-153" value="No" style="edgeLabel;html=1;align=center;verticalAlign=middle;resizable=0;points=[];" parent="ypjLtqxXZrKwEnutw4x--251" vertex="1" connectable="0">
                    <mxGeometry x="-0.2043" y="3" relative="1" as="geometry">
                        <mxPoint as="offset"/>
                    </mxGeometry>
                </mxCell>
                <mxCell id="XCBeeGY5s5GbqxmyynjP-176" value="Is Approved?" style="rhombus;whiteSpace=wrap;html=1;" parent="88" vertex="1">
                    <mxGeometry x="50" y="838.5" width="80" height="80" as="geometry"/>
                </mxCell>
                <mxCell id="ypjLtqxXZrKwEnutw4x--159" style="edgeStyle=orthogonalEdgeStyle;html=1;" parent="88" source="ypjLtqxXZrKwEnutw4x--157" target="127" edge="1">
                    <mxGeometry relative="1" as="geometry"/>
                </mxCell>
                <mxCell id="ypjLtqxXZrKwEnutw4x--157" value="Review CRF/&lt;br&gt;BizReq" style="whiteSpace=wrap;html=1;" parent="88" vertex="1">
                    <mxGeometry x="47" y="188.5" width="86" height="63" as="geometry"/>
                </mxCell>
                <mxCell id="127" value="Is Approved?" style="rhombus;whiteSpace=wrap;html=1;" parent="88" vertex="1">
                    <mxGeometry x="50" y="298.5" width="80" height="80" as="geometry"/>
                </mxCell>
                <mxCell id="xz77Pq4-CmndNSfmN_N1-157" value="A" style="ellipse;whiteSpace=wrap;html=1;aspect=fixed;" parent="88" vertex="1">
                    <mxGeometry x="66.75" y="428.5" width="46.5" height="46.5" as="geometry"/>
                </mxCell>
                <mxCell id="ypjLtqxXZrKwEnutw4x--155" style="edgeStyle=orthogonalEdgeStyle;html=1;" parent="88" source="127" target="xz77Pq4-CmndNSfmN_N1-157" edge="1">
                    <mxGeometry relative="1" as="geometry"/>
                </mxCell>
                <mxCell id="ypjLtqxXZrKwEnutw4x--184" value="No" style="edgeLabel;html=1;align=center;verticalAlign=middle;resizable=0;points=[];" parent="ypjLtqxXZrKwEnutw4x--155" vertex="1" connectable="0">
                    <mxGeometry x="-0.3467" relative="1" as="geometry">
                        <mxPoint as="offset"/>
                    </mxGeometry>
                </mxCell>
                <mxCell id="ypjLtqxXZrKwEnutw4x--245" style="edgeStyle=orthogonalEdgeStyle;html=1;" parent="88" source="ypjLtqxXZrKwEnutw4x--244" target="XCBeeGY5s5GbqxmyynjP-174" edge="1">
                    <mxGeometry relative="1" as="geometry"/>
                </mxCell>
                <mxCell id="ypjLtqxXZrKwEnutw4x--244" value="C" style="ellipse;whiteSpace=wrap;html=1;aspect=fixed;" parent="88" vertex="1">
                    <mxGeometry x="66.75" y="538.5" width="46.5" height="46.5" as="geometry"/>
                </mxCell>
                <mxCell id="ypjLtqxXZrKwEnutw4x--248" style="edgeStyle=orthogonalEdgeStyle;html=1;" parent="88" source="ypjLtqxXZrKwEnutw4x--246" target="XCBeeGY5s5GbqxmyynjP-176" edge="1">
                    <mxGeometry relative="1" as="geometry"/>
                </mxCell>
                <mxCell id="ypjLtqxXZrKwEnutw4x--246" value="Review&lt;br&gt;Bizcase" style="whiteSpace=wrap;html=1;" parent="88" vertex="1">
                    <mxGeometry x="47" y="728.5" width="86" height="63" as="geometry"/>
                </mxCell>
                <mxCell id="ypjLtqxXZrKwEnutw4x--249" value="B" style="ellipse;whiteSpace=wrap;html=1;aspect=fixed;" parent="88" vertex="1">
                    <mxGeometry x="66.75" y="968.5" width="46.5" height="46.5" as="geometry"/>
                </mxCell>
                <mxCell id="90" value="VP User" style="swimlane;whiteSpace=wrap;html=1;" parent="84" vertex="1">
                    <mxGeometry x="360" y="23" width="180" height="1057" as="geometry"/>
                </mxCell>
                <mxCell id="ypjLtqxXZrKwEnutw4x--161" value="Notification" style="whiteSpace=wrap;html=1;" parent="90" vertex="1">
                    <mxGeometry x="47" y="68.5" width="86" height="63" as="geometry"/>
                </mxCell>
                <mxCell id="ypjLtqxXZrKwEnutw4x--163" value="Review CRF/&lt;br&gt;BizReq" style="whiteSpace=wrap;html=1;" parent="90" vertex="1">
                    <mxGeometry x="47" y="189.5" width="86" height="63" as="geometry"/>
                </mxCell>
                <mxCell id="ypjLtqxXZrKwEnutw4x--160" style="edgeStyle=orthogonalEdgeStyle;html=1;" parent="90" source="ypjLtqxXZrKwEnutw4x--161" target="ypjLtqxXZrKwEnutw4x--163" edge="1">
                    <mxGeometry relative="1" as="geometry"/>
                </mxCell>
                <mxCell id="ypjLtqxXZrKwEnutw4x--164" value="Is Approved?" style="rhombus;whiteSpace=wrap;html=1;" parent="90" vertex="1">
                    <mxGeometry x="50" y="299.5" width="80" height="80" as="geometry"/>
                </mxCell>
                <mxCell id="ypjLtqxXZrKwEnutw4x--162" style="edgeStyle=orthogonalEdgeStyle;html=1;" parent="90" source="ypjLtqxXZrKwEnutw4x--163" target="ypjLtqxXZrKwEnutw4x--164" edge="1">
                    <mxGeometry relative="1" as="geometry"/>
                </mxCell>
                <mxCell id="ypjLtqxXZrKwEnutw4x--165" value="A" style="ellipse;whiteSpace=wrap;html=1;aspect=fixed;" parent="90" vertex="1">
                    <mxGeometry x="66.75" y="429.5" width="46.5" height="46.5" as="geometry"/>
                </mxCell>
                <mxCell id="ypjLtqxXZrKwEnutw4x--166" style="edgeStyle=orthogonalEdgeStyle;html=1;" parent="90" source="ypjLtqxXZrKwEnutw4x--164" target="ypjLtqxXZrKwEnutw4x--165" edge="1">
                    <mxGeometry relative="1" as="geometry"/>
                </mxCell>
                <mxCell id="ypjLtqxXZrKwEnutw4x--185" value="No" style="edgeLabel;html=1;align=center;verticalAlign=middle;resizable=0;points=[];" parent="ypjLtqxXZrKwEnutw4x--166" vertex="1" connectable="0">
                    <mxGeometry x="-0.2978" y="1" relative="1" as="geometry">
                        <mxPoint as="offset"/>
                    </mxGeometry>
                </mxCell>
                <mxCell id="ypjLtqxXZrKwEnutw4x--173" value="Notification" style="whiteSpace=wrap;html=1;" parent="90" vertex="1">
                    <mxGeometry x="406" y="68.5" width="86" height="63" as="geometry"/>
                </mxCell>
                <mxCell id="ypjLtqxXZrKwEnutw4x--174" value="Review CRF/&lt;br&gt;BizReq" style="whiteSpace=wrap;html=1;" parent="90" vertex="1">
                    <mxGeometry x="406" y="189.5" width="86" height="63" as="geometry"/>
                </mxCell>
                <mxCell id="ypjLtqxXZrKwEnutw4x--175" style="edgeStyle=orthogonalEdgeStyle;html=1;" parent="90" source="ypjLtqxXZrKwEnutw4x--173" target="ypjLtqxXZrKwEnutw4x--174" edge="1">
                    <mxGeometry relative="1" as="geometry"/>
                </mxCell>
                <mxCell id="ypjLtqxXZrKwEnutw4x--176" value="Is Approved?" style="rhombus;whiteSpace=wrap;html=1;" parent="90" vertex="1">
                    <mxGeometry x="409" y="299.5" width="80" height="80" as="geometry"/>
                </mxCell>
                <mxCell id="ypjLtqxXZrKwEnutw4x--177" style="edgeStyle=orthogonalEdgeStyle;html=1;" parent="90" source="ypjLtqxXZrKwEnutw4x--174" target="ypjLtqxXZrKwEnutw4x--176" edge="1">
                    <mxGeometry relative="1" as="geometry"/>
                </mxCell>
                <mxCell id="ypjLtqxXZrKwEnutw4x--178" value="E" style="ellipse;whiteSpace=wrap;html=1;aspect=fixed;" parent="90" vertex="1">
                    <mxGeometry x="425.75" y="429.5" width="46.5" height="46.5" as="geometry"/>
                </mxCell>
                <mxCell id="ypjLtqxXZrKwEnutw4x--179" style="edgeStyle=orthogonalEdgeStyle;html=1;" parent="90" source="ypjLtqxXZrKwEnutw4x--176" target="ypjLtqxXZrKwEnutw4x--178" edge="1">
                    <mxGeometry relative="1" as="geometry"/>
                </mxCell>
                <mxCell id="ypjLtqxXZrKwEnutw4x--186" value="No" style="edgeLabel;html=1;align=center;verticalAlign=middle;resizable=0;points=[];" parent="ypjLtqxXZrKwEnutw4x--179" vertex="1" connectable="0">
                    <mxGeometry x="-0.2533" y="1" relative="1" as="geometry">
                        <mxPoint as="offset"/>
                    </mxGeometry>
                </mxCell>
                <mxCell id="ypjLtqxXZrKwEnutw4x--253" value="Notification" style="whiteSpace=wrap;html=1;" parent="90" vertex="1">
                    <mxGeometry x="44" y="547" width="86" height="63" as="geometry"/>
                </mxCell>
                <mxCell id="ioKmRLGRX6r5Bhr2Kaur-150" style="edgeStyle=orthogonalEdgeStyle;html=1;entryX=0;entryY=0.5;entryDx=0;entryDy=0;exitX=0;exitY=0.5;exitDx=0;exitDy=0;" parent="90" source="ypjLtqxXZrKwEnutw4x--255" target="eLMHC3e-D2YK2D7sLZK2-150" edge="1">
                    <mxGeometry relative="1" as="geometry">
                        <Array as="points">
                            <mxPoint x="20" y="809"/>
                            <mxPoint x="20" y="1020"/>
                        </Array>
                    </mxGeometry>
                </mxCell>
                <mxCell id="ioKmRLGRX6r5Bhr2Kaur-151" value="Yes" style="edgeLabel;html=1;align=center;verticalAlign=middle;resizable=0;points=[];" parent="ioKmRLGRX6r5Bhr2Kaur-150" vertex="1" connectable="0">
                    <mxGeometry x="-0.9041" y="2" relative="1" as="geometry">
                        <mxPoint as="offset"/>
                    </mxGeometry>
                </mxCell>
                <mxCell id="ypjLtqxXZrKwEnutw4x--255" value="Is Approved?" style="rhombus;whiteSpace=wrap;html=1;" parent="90" vertex="1">
                    <mxGeometry x="47" y="769" width="80" height="80" as="geometry"/>
                </mxCell>
                <mxCell id="ypjLtqxXZrKwEnutw4x--256" style="edgeStyle=orthogonalEdgeStyle;html=1;" parent="90" source="ypjLtqxXZrKwEnutw4x--257" target="ypjLtqxXZrKwEnutw4x--255" edge="1">
                    <mxGeometry relative="1" as="geometry"/>
                </mxCell>
                <mxCell id="ypjLtqxXZrKwEnutw4x--257" value="Review&lt;br&gt;Bizcase" style="whiteSpace=wrap;html=1;" parent="90" vertex="1">
                    <mxGeometry x="44" y="659" width="86" height="63" as="geometry"/>
                </mxCell>
                <mxCell id="ypjLtqxXZrKwEnutw4x--252" style="edgeStyle=orthogonalEdgeStyle;html=1;" parent="90" source="ypjLtqxXZrKwEnutw4x--253" target="ypjLtqxXZrKwEnutw4x--257" edge="1">
                    <mxGeometry relative="1" as="geometry"/>
                </mxCell>
                <mxCell id="ypjLtqxXZrKwEnutw4x--258" value="B" style="ellipse;whiteSpace=wrap;html=1;aspect=fixed;" parent="90" vertex="1">
                    <mxGeometry x="63.75" y="899" width="46.5" height="46.5" as="geometry"/>
                </mxCell>
                <mxCell id="ypjLtqxXZrKwEnutw4x--254" value="" style="edgeStyle=orthogonalEdgeStyle;html=1;" parent="90" source="ypjLtqxXZrKwEnutw4x--255" target="ypjLtqxXZrKwEnutw4x--258" edge="1">
                    <mxGeometry relative="1" as="geometry"/>
                </mxCell>
                <mxCell id="eLMHC3e-D2YK2D7sLZK2-152" value="No" style="edgeLabel;html=1;align=center;verticalAlign=middle;resizable=0;points=[];" parent="ypjLtqxXZrKwEnutw4x--254" vertex="1" connectable="0">
                    <mxGeometry x="-0.2227" y="2" relative="1" as="geometry">
                        <mxPoint y="-1" as="offset"/>
                    </mxGeometry>
                </mxCell>
                <mxCell id="eLMHC3e-D2YK2D7sLZK2-150" value="D" style="ellipse;whiteSpace=wrap;html=1;aspect=fixed;" parent="90" vertex="1">
                    <mxGeometry x="63.75" y="997" width="46.5" height="46.5" as="geometry"/>
                </mxCell>
                <mxCell id="92" value="PMO" style="swimlane;whiteSpace=wrap;html=1;startSize=23;fontStyle=0" parent="84" vertex="1">
                    <mxGeometry x="540" y="23" width="180" height="1057" as="geometry"/>
                </mxCell>
                <mxCell id="139" value="Decide project&lt;br&gt;Scale" style="whiteSpace=wrap;html=1;" parent="92" vertex="1">
                    <mxGeometry x="49" y="188.5" width="86" height="63" as="geometry"/>
                </mxCell>
                <mxCell id="ypjLtqxXZrKwEnutw4x--172" style="edgeStyle=orthogonalEdgeStyle;html=1;" parent="92" source="ypjLtqxXZrKwEnutw4x--169" target="139" edge="1">
                    <mxGeometry relative="1" as="geometry"/>
                </mxCell>
                <mxCell id="ypjLtqxXZrKwEnutw4x--169" value="Notification" style="whiteSpace=wrap;html=1;" parent="92" vertex="1">
                    <mxGeometry x="50" y="68.5" width="86" height="63" as="geometry"/>
                </mxCell>
                <mxCell id="94" value="SM PMO" style="swimlane;whiteSpace=wrap;html=1;startSize=23;" parent="84" vertex="1">
                    <mxGeometry x="720" y="23" width="180" height="1057" as="geometry"/>
                </mxCell>
                <mxCell id="96" value="Manager SME" style="swimlane;whiteSpace=wrap;html=1;startSize=23;" parent="84" vertex="1">
                    <mxGeometry x="900" y="23" width="186" height="1057" as="geometry"/>
                </mxCell>
                <mxCell id="ypjLtqxXZrKwEnutw4x--217" style="edgeStyle=orthogonalEdgeStyle;html=1;entryX=0.5;entryY=0;entryDx=0;entryDy=0;" parent="96" source="150" target="ypjLtqxXZrKwEnutw4x--216" edge="1">
                    <mxGeometry relative="1" as="geometry"/>
                </mxCell>
                <mxCell id="150" value="Notification" style="whiteSpace=wrap;html=1;" parent="96" vertex="1">
                    <mxGeometry x="47" y="67" width="86" height="63" as="geometry"/>
                </mxCell>
                <mxCell id="XCBeeGY5s5GbqxmyynjP-165" style="edgeStyle=orthogonalEdgeStyle;html=1;" parent="96" edge="1">
                    <mxGeometry relative="1" as="geometry">
                        <mxPoint x="89.9565217391305" y="430" as="sourcePoint"/>
                    </mxGeometry>
                </mxCell>
                <mxCell id="ypjLtqxXZrKwEnutw4x--192" value="Notification" style="whiteSpace=wrap;html=1;" parent="96" vertex="1">
                    <mxGeometry x="50" y="308.5" width="86" height="63" as="geometry"/>
                </mxCell>
                <mxCell id="ypjLtqxXZrKwEnutw4x--193" value="Review CRF/&lt;br&gt;BizReq" style="whiteSpace=wrap;html=1;" parent="96" vertex="1">
                    <mxGeometry x="50" y="429.5" width="86" height="63" as="geometry"/>
                </mxCell>
                <mxCell id="ypjLtqxXZrKwEnutw4x--194" style="edgeStyle=orthogonalEdgeStyle;html=1;" parent="96" source="ypjLtqxXZrKwEnutw4x--192" target="ypjLtqxXZrKwEnutw4x--193" edge="1">
                    <mxGeometry relative="1" as="geometry"/>
                </mxCell>
                <mxCell id="ypjLtqxXZrKwEnutw4x--195" value="Is Approved?" style="rhombus;whiteSpace=wrap;html=1;" parent="96" vertex="1">
                    <mxGeometry x="53" y="539.5" width="80" height="80" as="geometry"/>
                </mxCell>
                <mxCell id="ypjLtqxXZrKwEnutw4x--196" style="edgeStyle=orthogonalEdgeStyle;html=1;" parent="96" source="ypjLtqxXZrKwEnutw4x--193" target="ypjLtqxXZrKwEnutw4x--195" edge="1">
                    <mxGeometry relative="1" as="geometry"/>
                </mxCell>
                <mxCell id="ypjLtqxXZrKwEnutw4x--197" value="B" style="ellipse;whiteSpace=wrap;html=1;aspect=fixed;" parent="96" vertex="1">
                    <mxGeometry x="69.75" y="669.5" width="46.5" height="46.5" as="geometry"/>
                </mxCell>
                <mxCell id="ypjLtqxXZrKwEnutw4x--198" style="edgeStyle=orthogonalEdgeStyle;html=1;" parent="96" source="ypjLtqxXZrKwEnutw4x--195" target="ypjLtqxXZrKwEnutw4x--197" edge="1">
                    <mxGeometry relative="1" as="geometry"/>
                </mxCell>
                <mxCell id="ypjLtqxXZrKwEnutw4x--199" value="No" style="edgeLabel;html=1;align=center;verticalAlign=middle;resizable=0;points=[];" parent="ypjLtqxXZrKwEnutw4x--198" vertex="1" connectable="0">
                    <mxGeometry x="-0.2978" y="1" relative="1" as="geometry">
                        <mxPoint as="offset"/>
                    </mxGeometry>
                </mxCell>
                <mxCell id="ypjLtqxXZrKwEnutw4x--216" value="Select SME" style="whiteSpace=wrap;html=1;" parent="96" vertex="1">
                    <mxGeometry x="47" y="188.5" width="86" height="63" as="geometry"/>
                </mxCell>
                <mxCell id="XCBeeGY5s5GbqxmyynjP-183" value="VP IT" style="swimlane;whiteSpace=wrap;html=1;startSize=23;" parent="84" vertex="1">
                    <mxGeometry x="1444" y="23" width="186" height="1057" as="geometry"/>
                </mxCell>
                <mxCell id="XCBeeGY5s5GbqxmyynjP-184" style="edgeStyle=orthogonalEdgeStyle;html=1;" parent="XCBeeGY5s5GbqxmyynjP-183" source="XCBeeGY5s5GbqxmyynjP-185" target="XCBeeGY5s5GbqxmyynjP-187" edge="1">
                    <mxGeometry relative="1" as="geometry"/>
                </mxCell>
                <mxCell id="XCBeeGY5s5GbqxmyynjP-185" value="Review" style="whiteSpace=wrap;html=1;" parent="XCBeeGY5s5GbqxmyynjP-183" vertex="1">
                    <mxGeometry x="76.5" y="483.5" width="86" height="63" as="geometry"/>
                </mxCell>
                <mxCell id="ypjLtqxXZrKwEnutw4x--234" style="edgeStyle=orthogonalEdgeStyle;html=1;" parent="XCBeeGY5s5GbqxmyynjP-183" source="XCBeeGY5s5GbqxmyynjP-187" target="ypjLtqxXZrKwEnutw4x--233" edge="1">
                    <mxGeometry relative="1" as="geometry"/>
                </mxCell>
                <mxCell id="ypjLtqxXZrKwEnutw4x--236" value="No" style="edgeLabel;html=1;align=center;verticalAlign=middle;resizable=0;points=[];" parent="ypjLtqxXZrKwEnutw4x--234" vertex="1" connectable="0">
                    <mxGeometry x="-0.2694" relative="1" as="geometry">
                        <mxPoint as="offset"/>
                    </mxGeometry>
                </mxCell>
                <mxCell id="ypjLtqxXZrKwEnutw4x--242" style="edgeStyle=orthogonalEdgeStyle;html=1;entryX=0;entryY=0.5;entryDx=0;entryDy=0;exitX=0;exitY=0.5;exitDx=0;exitDy=0;" parent="XCBeeGY5s5GbqxmyynjP-183" source="XCBeeGY5s5GbqxmyynjP-187" target="ypjLtqxXZrKwEnutw4x--231" edge="1">
                    <mxGeometry relative="1" as="geometry">
                        <Array as="points">
                            <mxPoint x="42" y="655"/>
                            <mxPoint x="42" y="877"/>
                        </Array>
                    </mxGeometry>
                </mxCell>
                <mxCell id="ypjLtqxXZrKwEnutw4x--243" value="Yes" style="edgeLabel;html=1;align=center;verticalAlign=middle;resizable=0;points=[];" parent="ypjLtqxXZrKwEnutw4x--242" vertex="1" connectable="0">
                    <mxGeometry x="-0.857" relative="1" as="geometry">
                        <mxPoint x="-1" as="offset"/>
                    </mxGeometry>
                </mxCell>
                <mxCell id="XCBeeGY5s5GbqxmyynjP-187" value="Is Approved?" style="rhombus;whiteSpace=wrap;html=1;" parent="XCBeeGY5s5GbqxmyynjP-183" vertex="1">
                    <mxGeometry x="79.5" y="615" width="80" height="80" as="geometry"/>
                </mxCell>
                <mxCell id="ypjLtqxXZrKwEnutw4x--231" value="End" style="ellipse;whiteSpace=wrap;html=1;" parent="XCBeeGY5s5GbqxmyynjP-183" vertex="1">
                    <mxGeometry x="87.25" y="855" width="64.5" height="43" as="geometry"/>
                </mxCell>
                <mxCell id="ypjLtqxXZrKwEnutw4x--233" value="B" style="ellipse;whiteSpace=wrap;html=1;aspect=fixed;" parent="XCBeeGY5s5GbqxmyynjP-183" vertex="1">
                    <mxGeometry x="96.25" y="765" width="46.5" height="46.5" as="geometry"/>
                </mxCell>
                <mxCell id="ypjLtqxXZrKwEnutw4x--240" style="edgeStyle=orthogonalEdgeStyle;html=1;" parent="XCBeeGY5s5GbqxmyynjP-183" source="ypjLtqxXZrKwEnutw4x--239" target="XCBeeGY5s5GbqxmyynjP-185" edge="1">
                    <mxGeometry relative="1" as="geometry"/>
                </mxCell>
                <mxCell id="ypjLtqxXZrKwEnutw4x--239" value="Notification" style="whiteSpace=wrap;html=1;" parent="XCBeeGY5s5GbqxmyynjP-183" vertex="1">
                    <mxGeometry x="77.5" y="355" width="86" height="63" as="geometry"/>
                </mxCell>
                <mxCell id="eLMHC3e-D2YK2D7sLZK2-157" style="edgeStyle=orthogonalEdgeStyle;html=1;" parent="XCBeeGY5s5GbqxmyynjP-183" source="eLMHC3e-D2YK2D7sLZK2-156" target="ypjLtqxXZrKwEnutw4x--239" edge="1">
                    <mxGeometry relative="1" as="geometry"/>
                </mxCell>
                <mxCell id="eLMHC3e-D2YK2D7sLZK2-156" value="D" style="ellipse;whiteSpace=wrap;html=1;aspect=fixed;" parent="XCBeeGY5s5GbqxmyynjP-183" vertex="1">
                    <mxGeometry x="96.25" y="257" width="46.5" height="46.5" as="geometry"/>
                </mxCell>
                <mxCell id="eLMHC3e-D2YK2D7sLZK2-159" value="" style="edgeStyle=orthogonalEdgeStyle;html=1;" parent="XCBeeGY5s5GbqxmyynjP-183" source="eLMHC3e-D2YK2D7sLZK2-158" target="ypjLtqxXZrKwEnutw4x--231" edge="1">
                    <mxGeometry relative="1" as="geometry"/>
                </mxCell>
                <mxCell id="eLMHC3e-D2YK2D7sLZK2-158" value="E" style="ellipse;whiteSpace=wrap;html=1;aspect=fixed;" parent="XCBeeGY5s5GbqxmyynjP-183" vertex="1">
                    <mxGeometry x="97.25" y="947" width="46.5" height="46.5" as="geometry"/>
                </mxCell>
                <mxCell id="XCBeeGY5s5GbqxmyynjP-155" value="SM IT" style="swimlane;whiteSpace=wrap;html=1;startSize=23;" parent="84" vertex="1">
                    <mxGeometry x="1270" y="23" width="175" height="1057" as="geometry"/>
                </mxCell>
                <mxCell id="XCBeeGY5s5GbqxmyynjP-169" style="edgeStyle=orthogonalEdgeStyle;html=1;" parent="XCBeeGY5s5GbqxmyynjP-155" source="XCBeeGY5s5GbqxmyynjP-166" target="XCBeeGY5s5GbqxmyynjP-168" edge="1">
                    <mxGeometry relative="1" as="geometry"/>
                </mxCell>
                <mxCell id="XCBeeGY5s5GbqxmyynjP-166" value="Review CRF/&lt;br&gt;BizReq" style="whiteSpace=wrap;html=1;" parent="XCBeeGY5s5GbqxmyynjP-155" vertex="1">
                    <mxGeometry x="41.82" y="418.5" width="86" height="63" as="geometry"/>
                </mxCell>
                <mxCell id="ypjLtqxXZrKwEnutw4x--211" style="edgeStyle=orthogonalEdgeStyle;html=1;" parent="XCBeeGY5s5GbqxmyynjP-155" source="XCBeeGY5s5GbqxmyynjP-168" target="ypjLtqxXZrKwEnutw4x--210" edge="1">
                    <mxGeometry relative="1" as="geometry"/>
                </mxCell>
                <mxCell id="ypjLtqxXZrKwEnutw4x--212" value="No" style="edgeLabel;html=1;align=center;verticalAlign=middle;resizable=0;points=[];" parent="ypjLtqxXZrKwEnutw4x--211" vertex="1" connectable="0">
                    <mxGeometry x="-0.376" y="-1" relative="1" as="geometry">
                        <mxPoint as="offset"/>
                    </mxGeometry>
                </mxCell>
                <mxCell id="ypjLtqxXZrKwEnutw4x--224" style="edgeStyle=orthogonalEdgeStyle;html=1;entryX=0;entryY=0.5;entryDx=0;entryDy=0;exitX=0;exitY=0.5;exitDx=0;exitDy=0;" parent="XCBeeGY5s5GbqxmyynjP-155" source="XCBeeGY5s5GbqxmyynjP-168" target="XCBeeGY5s5GbqxmyynjP-172" edge="1">
                    <mxGeometry relative="1" as="geometry">
                        <Array as="points">
                            <mxPoint x="15" y="568.5"/>
                            <mxPoint x="15" y="788.5"/>
                        </Array>
                    </mxGeometry>
                </mxCell>
                <mxCell id="ypjLtqxXZrKwEnutw4x--225" value="Yes" style="edgeLabel;html=1;align=center;verticalAlign=middle;resizable=0;points=[];" parent="ypjLtqxXZrKwEnutw4x--224" vertex="1" connectable="0">
                    <mxGeometry x="-0.8665" y="2" relative="1" as="geometry">
                        <mxPoint as="offset"/>
                    </mxGeometry>
                </mxCell>
                <mxCell id="XCBeeGY5s5GbqxmyynjP-168" value="Is Approved?" style="rhombus;whiteSpace=wrap;html=1;" parent="XCBeeGY5s5GbqxmyynjP-155" vertex="1">
                    <mxGeometry x="45.82" y="528.5" width="80" height="80" as="geometry"/>
                </mxCell>
                <mxCell id="ypjLtqxXZrKwEnutw4x--214" style="edgeStyle=orthogonalEdgeStyle;html=1;" parent="XCBeeGY5s5GbqxmyynjP-155" source="XCBeeGY5s5GbqxmyynjP-172" target="ypjLtqxXZrKwEnutw4x--213" edge="1">
                    <mxGeometry relative="1" as="geometry"/>
                </mxCell>
                <mxCell id="ypjLtqxXZrKwEnutw4x--230" value="Yes" style="edgeLabel;html=1;align=center;verticalAlign=middle;resizable=0;points=[];" parent="ypjLtqxXZrKwEnutw4x--214" vertex="1" connectable="0">
                    <mxGeometry x="-0.3534" y="-1" relative="1" as="geometry">
                        <mxPoint as="offset"/>
                    </mxGeometry>
                </mxCell>
                <mxCell id="XCBeeGY5s5GbqxmyynjP-172" value="Is Bizreq?" style="rhombus;whiteSpace=wrap;html=1;" parent="XCBeeGY5s5GbqxmyynjP-155" vertex="1">
                    <mxGeometry x="44.82" y="748.5" width="80" height="80" as="geometry"/>
                </mxCell>
                <mxCell id="ypjLtqxXZrKwEnutw4x--204" style="edgeStyle=orthogonalEdgeStyle;html=1;" parent="XCBeeGY5s5GbqxmyynjP-155" source="ypjLtqxXZrKwEnutw4x--203" target="XCBeeGY5s5GbqxmyynjP-166" edge="1">
                    <mxGeometry relative="1" as="geometry"/>
                </mxCell>
                <mxCell id="ypjLtqxXZrKwEnutw4x--203" value="Notification" style="whiteSpace=wrap;html=1;" parent="XCBeeGY5s5GbqxmyynjP-155" vertex="1">
                    <mxGeometry x="40.82" y="308.5" width="86" height="63" as="geometry"/>
                </mxCell>
                <mxCell id="ypjLtqxXZrKwEnutw4x--210" value="B" style="ellipse;whiteSpace=wrap;html=1;aspect=fixed;" parent="XCBeeGY5s5GbqxmyynjP-155" vertex="1">
                    <mxGeometry x="61.57" y="658.5" width="46.5" height="46.5" as="geometry"/>
                </mxCell>
                <mxCell id="ypjLtqxXZrKwEnutw4x--213" value="C" style="ellipse;whiteSpace=wrap;html=1;aspect=fixed;" parent="XCBeeGY5s5GbqxmyynjP-155" vertex="1">
                    <mxGeometry x="60.57" y="888.5" width="46.5" height="46.5" as="geometry"/>
                </mxCell>
                <mxCell id="XCBeeGY5s5GbqxmyynjP-153" value="SME" style="swimlane;whiteSpace=wrap;html=1;startSize=23;" parent="84" vertex="1">
                    <mxGeometry x="1086" y="23" width="180" height="1057" as="geometry"/>
                </mxCell>
                <mxCell id="ypjLtqxXZrKwEnutw4x--219" style="edgeStyle=orthogonalEdgeStyle;html=1;" parent="XCBeeGY5s5GbqxmyynjP-153" source="XCBeeGY5s5GbqxmyynjP-154" target="ypjLtqxXZrKwEnutw4x--218" edge="1">
                    <mxGeometry relative="1" as="geometry"/>
                </mxCell>
                <mxCell id="XCBeeGY5s5GbqxmyynjP-154" value="Notification" style="whiteSpace=wrap;html=1;" parent="XCBeeGY5s5GbqxmyynjP-153" vertex="1">
                    <mxGeometry x="47" y="67" width="86" height="63" as="geometry"/>
                </mxCell>
                <mxCell id="ypjLtqxXZrKwEnutw4x--222" style="edgeStyle=orthogonalEdgeStyle;html=1;entryX=0.5;entryY=1;entryDx=0;entryDy=0;" parent="XCBeeGY5s5GbqxmyynjP-153" source="ypjLtqxXZrKwEnutw4x--201" target="ypjLtqxXZrKwEnutw4x--218" edge="1">
                    <mxGeometry relative="1" as="geometry"/>
                </mxCell>
                <mxCell id="ypjLtqxXZrKwEnutw4x--201" value="B" style="ellipse;whiteSpace=wrap;html=1;aspect=fixed;" parent="XCBeeGY5s5GbqxmyynjP-153" vertex="1">
                    <mxGeometry x="66.75" y="298.5" width="46.5" height="46.5" as="geometry"/>
                </mxCell>
                <mxCell id="ypjLtqxXZrKwEnutw4x--218" value="Fill/Edit Solution" style="whiteSpace=wrap;html=1;" parent="XCBeeGY5s5GbqxmyynjP-153" vertex="1">
                    <mxGeometry x="47" y="188.5" width="86" height="63" as="geometry"/>
                </mxCell>
                <mxCell id="XCBeeGY5s5GbqxmyynjP-157" style="edgeStyle=orthogonalEdgeStyle;html=1;exitX=1;exitY=0.5;exitDx=0;exitDy=0;entryX=0;entryY=0.5;entryDx=0;entryDy=0;" parent="84" source="ypjLtqxXZrKwEnutw4x--216" target="XCBeeGY5s5GbqxmyynjP-154" edge="1">
                    <mxGeometry relative="1" as="geometry">
                        <Array as="points">
                            <mxPoint x="1070" y="243.5"/>
                            <mxPoint x="1070" y="121.5"/>
                        </Array>
                    </mxGeometry>
                </mxCell>
                <mxCell id="ypjLtqxXZrKwEnutw4x--152" style="edgeStyle=orthogonalEdgeStyle;html=1;entryX=0;entryY=0.5;entryDx=0;entryDy=0;" parent="84" source="111" target="122" edge="1">
                    <mxGeometry relative="1" as="geometry"/>
                </mxCell>
                <mxCell id="ypjLtqxXZrKwEnutw4x--153" value="Yes" style="edgeLabel;html=1;align=center;verticalAlign=middle;resizable=0;points=[];" parent="ypjLtqxXZrKwEnutw4x--152" vertex="1" connectable="0">
                    <mxGeometry x="0.2323" y="2" relative="1" as="geometry">
                        <mxPoint as="offset"/>
                    </mxGeometry>
                </mxCell>
                <mxCell id="ypjLtqxXZrKwEnutw4x--167" style="edgeStyle=orthogonalEdgeStyle;html=1;entryX=0;entryY=0.5;entryDx=0;entryDy=0;" parent="84" source="127" target="ypjLtqxXZrKwEnutw4x--161" edge="1">
                    <mxGeometry relative="1" as="geometry">
                        <Array as="points">
                            <mxPoint x="340" y="361.5"/>
                            <mxPoint x="340" y="122.5"/>
                        </Array>
                    </mxGeometry>
                </mxCell>
                <mxCell id="ypjLtqxXZrKwEnutw4x--168" value="Yes" style="edgeLabel;html=1;align=center;verticalAlign=middle;resizable=0;points=[];" parent="ypjLtqxXZrKwEnutw4x--167" vertex="1" connectable="0">
                    <mxGeometry x="-0.88" relative="1" as="geometry">
                        <mxPoint as="offset"/>
                    </mxGeometry>
                </mxCell>
                <mxCell id="ypjLtqxXZrKwEnutw4x--170" style="edgeStyle=orthogonalEdgeStyle;html=1;entryX=0;entryY=0.5;entryDx=0;entryDy=0;" parent="84" source="ypjLtqxXZrKwEnutw4x--164" target="ypjLtqxXZrKwEnutw4x--169" edge="1">
                    <mxGeometry relative="1" as="geometry">
                        <Array as="points">
                            <mxPoint x="530" y="362.5"/>
                            <mxPoint x="530" y="122.5"/>
                        </Array>
                    </mxGeometry>
                </mxCell>
                <mxCell id="ypjLtqxXZrKwEnutw4x--171" value="Yes" style="edgeLabel;html=1;align=center;verticalAlign=middle;resizable=0;points=[];" parent="ypjLtqxXZrKwEnutw4x--170" vertex="1" connectable="0">
                    <mxGeometry x="-0.9109" y="-4" relative="1" as="geometry">
                        <mxPoint as="offset"/>
                    </mxGeometry>
                </mxCell>
                <mxCell id="ypjLtqxXZrKwEnutw4x--181" style="edgeStyle=orthogonalEdgeStyle;html=1;entryX=0;entryY=0.5;entryDx=0;entryDy=0;" parent="84" source="139" target="ypjLtqxXZrKwEnutw4x--173" edge="1">
                    <mxGeometry relative="1" as="geometry">
                        <Array as="points">
                            <mxPoint x="700" y="243.5"/>
                            <mxPoint x="700" y="122.5"/>
                        </Array>
                    </mxGeometry>
                </mxCell>
                <mxCell id="ypjLtqxXZrKwEnutw4x--187" style="edgeStyle=orthogonalEdgeStyle;html=1;entryX=0;entryY=0.5;entryDx=0;entryDy=0;" parent="84" source="ypjLtqxXZrKwEnutw4x--176" target="150" edge="1">
                    <mxGeometry relative="1" as="geometry">
                        <Array as="points">
                            <mxPoint x="880" y="362.5"/>
                            <mxPoint x="880" y="121.5"/>
                        </Array>
                    </mxGeometry>
                </mxCell>
                <mxCell id="ypjLtqxXZrKwEnutw4x--215" value="Yes" style="edgeLabel;html=1;align=center;verticalAlign=middle;resizable=0;points=[];" parent="ypjLtqxXZrKwEnutw4x--187" vertex="1" connectable="0">
                    <mxGeometry x="-0.9007" y="-1" relative="1" as="geometry">
                        <mxPoint as="offset"/>
                    </mxGeometry>
                </mxCell>
                <mxCell id="ypjLtqxXZrKwEnutw4x--205" style="edgeStyle=orthogonalEdgeStyle;html=1;entryX=0;entryY=0.5;entryDx=0;entryDy=0;" parent="84" source="ypjLtqxXZrKwEnutw4x--195" target="ypjLtqxXZrKwEnutw4x--203" edge="1">
                    <mxGeometry relative="1" as="geometry">
                        <Array as="points">
                            <mxPoint x="1230" y="602.5"/>
                            <mxPoint x="1230" y="363.5"/>
                        </Array>
                    </mxGeometry>
                </mxCell>
                <mxCell id="ypjLtqxXZrKwEnutw4x--223" value="Yes" style="edgeLabel;html=1;align=center;verticalAlign=middle;resizable=0;points=[];" parent="ypjLtqxXZrKwEnutw4x--205" vertex="1" connectable="0">
                    <mxGeometry x="-0.9325" y="-1" relative="1" as="geometry">
                        <mxPoint as="offset"/>
                    </mxGeometry>
                </mxCell>
                <mxCell id="ypjLtqxXZrKwEnutw4x--221" style="edgeStyle=orthogonalEdgeStyle;html=1;entryX=1;entryY=0.5;entryDx=0;entryDy=0;" parent="84" source="ypjLtqxXZrKwEnutw4x--218" target="ypjLtqxXZrKwEnutw4x--192" edge="1">
                    <mxGeometry relative="1" as="geometry">
                        <Array as="points">
                            <mxPoint x="1100" y="242.5"/>
                            <mxPoint x="1100" y="362.5"/>
                        </Array>
                    </mxGeometry>
                </mxCell>
                <mxCell id="ypjLtqxXZrKwEnutw4x--241" style="edgeStyle=orthogonalEdgeStyle;html=1;entryX=0;entryY=0.5;entryDx=0;entryDy=0;" parent="84" source="XCBeeGY5s5GbqxmyynjP-172" target="ypjLtqxXZrKwEnutw4x--239" edge="1">
                    <mxGeometry relative="1" as="geometry"/>
                </mxCell>
                <mxCell id="eLMHC3e-D2YK2D7sLZK2-160" value="No" style="edgeLabel;html=1;align=center;verticalAlign=middle;resizable=0;points=[];" parent="ypjLtqxXZrKwEnutw4x--241" vertex="1" connectable="0">
                    <mxGeometry x="-0.6945" y="-2" relative="1" as="geometry">
                        <mxPoint as="offset"/>
                    </mxGeometry>
                </mxCell>
                <mxCell id="ioKmRLGRX6r5Bhr2Kaur-152" style="edgeStyle=orthogonalEdgeStyle;html=1;entryX=0;entryY=0.5;entryDx=0;entryDy=0;" parent="84" source="XCBeeGY5s5GbqxmyynjP-176" target="ypjLtqxXZrKwEnutw4x--253" edge="1">
                    <mxGeometry relative="1" as="geometry">
                        <Array as="points">
                            <mxPoint x="340" y="902"/>
                            <mxPoint x="340" y="602"/>
                        </Array>
                    </mxGeometry>
                </mxCell>
                <mxCell id="ioKmRLGRX6r5Bhr2Kaur-153" value="Yes" style="edgeLabel;html=1;align=center;verticalAlign=middle;resizable=0;points=[];" parent="ioKmRLGRX6r5Bhr2Kaur-152" vertex="1" connectable="0">
                    <mxGeometry x="-0.8695" y="1" relative="1" as="geometry">
                        <mxPoint as="offset"/>
                    </mxGeometry>
                </mxCell>
            </root>
        </mxGraphModel>
    </diagram>
    <diagram name="Project" id="hIzrXM4-cZCd2a-LHA30">
        <mxGraphModel dx="960" dy="559" grid="1" gridSize="10" guides="1" tooltips="1" connect="1" arrows="1" fold="1" page="1" pageScale="1" pageWidth="850" pageHeight="1100" math="0" shadow="0">
            <root>
                <mxCell id="J_HoBrAtXobKQHycD5fD-0"/>
                <mxCell id="J_HoBrAtXobKQHycD5fD-1" parent="J_HoBrAtXobKQHycD5fD-0"/>
                <mxCell id="J_HoBrAtXobKQHycD5fD-2" value="Flow Proces Project" style="swimlane;whiteSpace=wrap;html=1;" parent="J_HoBrAtXobKQHycD5fD-1" vertex="1">
                    <mxGeometry x="10" y="10" width="830" height="710" as="geometry"/>
                </mxCell>
                <mxCell id="J_HoBrAtXobKQHycD5fD-3" value="User" style="swimlane;whiteSpace=wrap;html=1;" parent="J_HoBrAtXobKQHycD5fD-2" vertex="1">
                    <mxGeometry y="23" width="150" height="687" as="geometry"/>
                </mxCell>
                <mxCell id="J_HoBrAtXobKQHycD5fD-4" value="" style="edgeStyle=none;html=1;" parent="J_HoBrAtXobKQHycD5fD-3" source="J_HoBrAtXobKQHycD5fD-5" edge="1">
                    <mxGeometry relative="1" as="geometry">
                        <mxPoint x="75" y="137" as="targetPoint"/>
                    </mxGeometry>
                </mxCell>
                <mxCell id="J_HoBrAtXobKQHycD5fD-5" value="Start" style="ellipse;whiteSpace=wrap;html=1;" parent="J_HoBrAtXobKQHycD5fD-3" vertex="1">
                    <mxGeometry x="42.75" y="57" width="64.5" height="43" as="geometry"/>
                </mxCell>
                <mxCell id="pamyl5l8FKV7wxsov_2d-1" value="" style="edgeStyle=none;html=1;" parent="J_HoBrAtXobKQHycD5fD-3" source="J_HoBrAtXobKQHycD5fD-7" target="pamyl5l8FKV7wxsov_2d-0" edge="1">
                    <mxGeometry relative="1" as="geometry"/>
                </mxCell>
                <mxCell id="J_HoBrAtXobKQHycD5fD-7" value="View Document&lt;br&gt;Bizreq / CRF" style="whiteSpace=wrap;html=1;" parent="J_HoBrAtXobKQHycD5fD-3" vertex="1">
                    <mxGeometry x="30" y="137" width="86" height="63" as="geometry"/>
                </mxCell>
                <mxCell id="pamyl5l8FKV7wxsov_2d-0" value="A" style="ellipse;whiteSpace=wrap;html=1;" parent="J_HoBrAtXobKQHycD5fD-3" vertex="1">
                    <mxGeometry x="50.75" y="247" width="48.5" height="48.5" as="geometry"/>
                </mxCell>
                <mxCell id="J_HoBrAtXobKQHycD5fD-12" value="PMO" style="swimlane;whiteSpace=wrap;html=1;" parent="J_HoBrAtXobKQHycD5fD-2" vertex="1">
                    <mxGeometry x="150" y="23" width="150" height="687" as="geometry"/>
                </mxCell>
                <mxCell id="jsJ6bUkTsPZTwGdAlCoQ-1" style="edgeStyle=none;html=1;" parent="J_HoBrAtXobKQHycD5fD-12" source="pamyl5l8FKV7wxsov_2d-2" target="jsJ6bUkTsPZTwGdAlCoQ-0" edge="1">
                    <mxGeometry relative="1" as="geometry"/>
                </mxCell>
                <mxCell id="pamyl5l8FKV7wxsov_2d-2" value="View Document&lt;br&gt;Bizreq / CRF" style="whiteSpace=wrap;html=1;" parent="J_HoBrAtXobKQHycD5fD-12" vertex="1">
                    <mxGeometry x="32" y="137" width="86" height="63" as="geometry"/>
                </mxCell>
                <mxCell id="jsJ6bUkTsPZTwGdAlCoQ-3" value="Yes" style="edgeStyle=none;html=1;entryX=0.5;entryY=0;entryDx=0;entryDy=0;" parent="J_HoBrAtXobKQHycD5fD-12" source="jsJ6bUkTsPZTwGdAlCoQ-0" target="jsJ6bUkTsPZTwGdAlCoQ-2" edge="1">
                    <mxGeometry relative="1" as="geometry"/>
                </mxCell>
                <mxCell id="jsJ6bUkTsPZTwGdAlCoQ-7" style="edgeStyle=orthogonalEdgeStyle;html=1;entryX=0;entryY=0.5;entryDx=0;entryDy=0;exitX=0;exitY=0.5;exitDx=0;exitDy=0;" parent="J_HoBrAtXobKQHycD5fD-12" source="jsJ6bUkTsPZTwGdAlCoQ-0" target="jsJ6bUkTsPZTwGdAlCoQ-6" edge="1">
                    <mxGeometry relative="1" as="geometry">
                        <Array as="points">
                            <mxPoint x="10" y="287"/>
                            <mxPoint x="10" y="517"/>
                        </Array>
                    </mxGeometry>
                </mxCell>
                <mxCell id="jsJ6bUkTsPZTwGdAlCoQ-8" value="No" style="edgeLabel;html=1;align=center;verticalAlign=middle;resizable=0;points=[];" parent="jsJ6bUkTsPZTwGdAlCoQ-7" vertex="1" connectable="0">
                    <mxGeometry x="-0.7216" y="3" relative="1" as="geometry">
                        <mxPoint as="offset"/>
                    </mxGeometry>
                </mxCell>
                <mxCell id="jsJ6bUkTsPZTwGdAlCoQ-0" value="Is CRF?" style="rhombus;whiteSpace=wrap;html=1;" parent="J_HoBrAtXobKQHycD5fD-12" vertex="1">
                    <mxGeometry x="35" y="247" width="80" height="80" as="geometry"/>
                </mxCell>
                <mxCell id="jsJ6bUkTsPZTwGdAlCoQ-9" style="edgeStyle=orthogonalEdgeStyle;html=1;" parent="J_HoBrAtXobKQHycD5fD-12" source="jsJ6bUkTsPZTwGdAlCoQ-2" target="jsJ6bUkTsPZTwGdAlCoQ-6" edge="1">
                    <mxGeometry relative="1" as="geometry"/>
                </mxCell>
                <mxCell id="jsJ6bUkTsPZTwGdAlCoQ-2" value="Fill Field&lt;br&gt;Projection Cost" style="whiteSpace=wrap;html=1;" parent="J_HoBrAtXobKQHycD5fD-12" vertex="1">
                    <mxGeometry x="32" y="377" width="86" height="63" as="geometry"/>
                </mxCell>
                <mxCell id="jsJ6bUkTsPZTwGdAlCoQ-11" style="edgeStyle=orthogonalEdgeStyle;html=1;" parent="J_HoBrAtXobKQHycD5fD-12" source="jsJ6bUkTsPZTwGdAlCoQ-6" edge="1">
                    <mxGeometry relative="1" as="geometry">
                        <mxPoint x="75" y="597.0000000000002" as="targetPoint"/>
                    </mxGeometry>
                </mxCell>
                <mxCell id="jsJ6bUkTsPZTwGdAlCoQ-6" value="Upload Document" style="whiteSpace=wrap;html=1;" parent="J_HoBrAtXobKQHycD5fD-12" vertex="1">
                    <mxGeometry x="32" y="485.5" width="86" height="63" as="geometry"/>
                </mxCell>
                <mxCell id="jsJ6bUkTsPZTwGdAlCoQ-14" value="B" style="ellipse;whiteSpace=wrap;html=1;" parent="J_HoBrAtXobKQHycD5fD-12" vertex="1">
                    <mxGeometry x="50.75" y="597" width="48.5" height="48.5" as="geometry"/>
                </mxCell>
                <mxCell id="J_HoBrAtXobKQHycD5fD-16" value="SM TDI/TDO" style="swimlane;whiteSpace=wrap;html=1;" parent="J_HoBrAtXobKQHycD5fD-2" vertex="1">
                    <mxGeometry x="300" y="23" width="140" height="687" as="geometry"/>
                </mxCell>
                <mxCell id="jsJ6bUkTsPZTwGdAlCoQ-63" value="" style="edgeStyle=orthogonalEdgeStyle;html=1;" parent="J_HoBrAtXobKQHycD5fD-16" source="jsJ6bUkTsPZTwGdAlCoQ-22" edge="1">
                    <mxGeometry relative="1" as="geometry">
                        <mxPoint x="70" y="247" as="targetPoint"/>
                    </mxGeometry>
                </mxCell>
                <mxCell id="jsJ6bUkTsPZTwGdAlCoQ-22" value="View Document&lt;br&gt;Bizreq / CRF" style="whiteSpace=wrap;html=1;" parent="J_HoBrAtXobKQHycD5fD-16" vertex="1">
                    <mxGeometry x="27" y="137" width="86" height="63" as="geometry"/>
                </mxCell>
                <mxCell id="jsJ6bUkTsPZTwGdAlCoQ-68" value="" style="edgeStyle=orthogonalEdgeStyle;html=1;" parent="J_HoBrAtXobKQHycD5fD-16" source="jsJ6bUkTsPZTwGdAlCoQ-66" target="jsJ6bUkTsPZTwGdAlCoQ-67" edge="1">
                    <mxGeometry relative="1" as="geometry"/>
                </mxCell>
                <mxCell id="jsJ6bUkTsPZTwGdAlCoQ-66" value="Approval Document Bizreq / CRF" style="whiteSpace=wrap;html=1;" parent="J_HoBrAtXobKQHycD5fD-16" vertex="1">
                    <mxGeometry x="27" y="247" width="86" height="63" as="geometry"/>
                </mxCell>
                <mxCell id="jsJ6bUkTsPZTwGdAlCoQ-67" value="B" style="ellipse;whiteSpace=wrap;html=1;" parent="J_HoBrAtXobKQHycD5fD-16" vertex="1">
                    <mxGeometry x="45.75" y="357" width="48.5" height="48.5" as="geometry"/>
                </mxCell>
                <mxCell id="J_HoBrAtXobKQHycD5fD-20" value="Manager TDI/TDO" style="swimlane;whiteSpace=wrap;html=1;startSize=23;" parent="J_HoBrAtXobKQHycD5fD-2" vertex="1">
                    <mxGeometry x="440" y="23" width="130" height="687" as="geometry"/>
                </mxCell>
                <mxCell id="jsJ6bUkTsPZTwGdAlCoQ-64" value="" style="edgeStyle=orthogonalEdgeStyle;html=1;" parent="J_HoBrAtXobKQHycD5fD-20" source="jsJ6bUkTsPZTwGdAlCoQ-55" edge="1">
                    <mxGeometry relative="1" as="geometry">
                        <mxPoint x="65" y="247" as="targetPoint"/>
                    </mxGeometry>
                </mxCell>
                <mxCell id="jsJ6bUkTsPZTwGdAlCoQ-55" value="View Document&lt;br&gt;Bizreq / CRF" style="whiteSpace=wrap;html=1;" parent="J_HoBrAtXobKQHycD5fD-20" vertex="1">
                    <mxGeometry x="22" y="137" width="86" height="63" as="geometry"/>
                </mxCell>
                <mxCell id="jsJ6bUkTsPZTwGdAlCoQ-80" style="edgeStyle=orthogonalEdgeStyle;html=1;" parent="J_HoBrAtXobKQHycD5fD-20" source="jsJ6bUkTsPZTwGdAlCoQ-78" target="jsJ6bUkTsPZTwGdAlCoQ-79" edge="1">
                    <mxGeometry relative="1" as="geometry"/>
                </mxCell>
                <mxCell id="jsJ6bUkTsPZTwGdAlCoQ-78" value="Select SME" style="whiteSpace=wrap;html=1;" parent="J_HoBrAtXobKQHycD5fD-20" vertex="1">
                    <mxGeometry x="22" y="247" width="86" height="63" as="geometry"/>
                </mxCell>
                <mxCell id="jsJ6bUkTsPZTwGdAlCoQ-82" value="" style="edgeStyle=orthogonalEdgeStyle;html=1;" parent="J_HoBrAtXobKQHycD5fD-20" source="jsJ6bUkTsPZTwGdAlCoQ-79" target="jsJ6bUkTsPZTwGdAlCoQ-81" edge="1">
                    <mxGeometry relative="1" as="geometry"/>
                </mxCell>
                <mxCell id="jsJ6bUkTsPZTwGdAlCoQ-79" value="Approval Document Bizreq / CRF" style="whiteSpace=wrap;html=1;" parent="J_HoBrAtXobKQHycD5fD-20" vertex="1">
                    <mxGeometry x="22" y="357" width="86" height="63" as="geometry"/>
                </mxCell>
                <mxCell id="jsJ6bUkTsPZTwGdAlCoQ-81" value="B" style="ellipse;whiteSpace=wrap;html=1;" parent="J_HoBrAtXobKQHycD5fD-20" vertex="1">
                    <mxGeometry x="40.75" y="468.5" width="48.5" height="48.5" as="geometry"/>
                </mxCell>
                <mxCell id="J_HoBrAtXobKQHycD5fD-22" value="SME" style="swimlane;whiteSpace=wrap;html=1;startSize=23;" parent="J_HoBrAtXobKQHycD5fD-2" vertex="1">
                    <mxGeometry x="570" y="23" width="130" height="687" as="geometry"/>
                </mxCell>
                <mxCell id="jsJ6bUkTsPZTwGdAlCoQ-65" value="" style="edgeStyle=orthogonalEdgeStyle;html=1;" parent="J_HoBrAtXobKQHycD5fD-22" source="jsJ6bUkTsPZTwGdAlCoQ-56" target="jsJ6bUkTsPZTwGdAlCoQ-62" edge="1">
                    <mxGeometry relative="1" as="geometry"/>
                </mxCell>
                <mxCell id="jsJ6bUkTsPZTwGdAlCoQ-56" value="View Document&lt;br&gt;Bizreq / CRF" style="whiteSpace=wrap;html=1;" parent="J_HoBrAtXobKQHycD5fD-22" vertex="1">
                    <mxGeometry x="22" y="137" width="86" height="63" as="geometry"/>
                </mxCell>
                <mxCell id="jsJ6bUkTsPZTwGdAlCoQ-71" value="" style="edgeStyle=orthogonalEdgeStyle;html=1;" parent="J_HoBrAtXobKQHycD5fD-22" source="jsJ6bUkTsPZTwGdAlCoQ-62" target="jsJ6bUkTsPZTwGdAlCoQ-69" edge="1">
                    <mxGeometry relative="1" as="geometry"/>
                </mxCell>
                <mxCell id="jsJ6bUkTsPZTwGdAlCoQ-73" value="Yes" style="edgeLabel;html=1;align=center;verticalAlign=middle;resizable=0;points=[];" parent="jsJ6bUkTsPZTwGdAlCoQ-71" vertex="1" connectable="0">
                    <mxGeometry x="-0.4133" relative="1" as="geometry">
                        <mxPoint as="offset"/>
                    </mxGeometry>
                </mxCell>
                <mxCell id="jsJ6bUkTsPZTwGdAlCoQ-72" style="edgeStyle=orthogonalEdgeStyle;html=1;entryX=0;entryY=0.5;entryDx=0;entryDy=0;exitX=0;exitY=0.5;exitDx=0;exitDy=0;" parent="J_HoBrAtXobKQHycD5fD-22" source="jsJ6bUkTsPZTwGdAlCoQ-62" target="jsJ6bUkTsPZTwGdAlCoQ-70" edge="1">
                    <mxGeometry relative="1" as="geometry">
                        <Array as="points">
                            <mxPoint x="10" y="287"/>
                            <mxPoint x="10" y="517"/>
                        </Array>
                    </mxGeometry>
                </mxCell>
                <mxCell id="jsJ6bUkTsPZTwGdAlCoQ-74" value="No" style="edgeLabel;html=1;align=center;verticalAlign=middle;resizable=0;points=[];" parent="jsJ6bUkTsPZTwGdAlCoQ-72" vertex="1" connectable="0">
                    <mxGeometry x="-0.847" y="3" relative="1" as="geometry">
                        <mxPoint as="offset"/>
                    </mxGeometry>
                </mxCell>
                <mxCell id="jsJ6bUkTsPZTwGdAlCoQ-62" value="Is CRF?" style="rhombus;whiteSpace=wrap;html=1;" parent="J_HoBrAtXobKQHycD5fD-22" vertex="1">
                    <mxGeometry x="25" y="247" width="80" height="80" as="geometry"/>
                </mxCell>
                <mxCell id="jsJ6bUkTsPZTwGdAlCoQ-76" style="edgeStyle=orthogonalEdgeStyle;html=1;entryX=1;entryY=0.5;entryDx=0;entryDy=0;exitX=1;exitY=0.5;exitDx=0;exitDy=0;" parent="J_HoBrAtXobKQHycD5fD-22" source="jsJ6bUkTsPZTwGdAlCoQ-69" target="jsJ6bUkTsPZTwGdAlCoQ-75" edge="1">
                    <mxGeometry relative="1" as="geometry"/>
                </mxCell>
                <mxCell id="jsJ6bUkTsPZTwGdAlCoQ-69" value="Fill Document&lt;br&gt;CRF" style="whiteSpace=wrap;html=1;" parent="J_HoBrAtXobKQHycD5fD-22" vertex="1">
                    <mxGeometry x="22" y="377" width="86" height="63" as="geometry"/>
                </mxCell>
                <mxCell id="jsJ6bUkTsPZTwGdAlCoQ-77" style="edgeStyle=orthogonalEdgeStyle;html=1;" parent="J_HoBrAtXobKQHycD5fD-22" source="jsJ6bUkTsPZTwGdAlCoQ-70" target="jsJ6bUkTsPZTwGdAlCoQ-75" edge="1">
                    <mxGeometry relative="1" as="geometry"/>
                </mxCell>
                <mxCell id="jsJ6bUkTsPZTwGdAlCoQ-70" value="Fill Document&lt;br&gt;Bizreq" style="whiteSpace=wrap;html=1;" parent="J_HoBrAtXobKQHycD5fD-22" vertex="1">
                    <mxGeometry x="22" y="485.5" width="86" height="63" as="geometry"/>
                </mxCell>
                <mxCell id="jsJ6bUkTsPZTwGdAlCoQ-75" value="B" style="ellipse;whiteSpace=wrap;html=1;" parent="J_HoBrAtXobKQHycD5fD-22" vertex="1">
                    <mxGeometry x="40.75" y="597" width="48.5" height="48.5" as="geometry"/>
                </mxCell>
                <mxCell id="J_HoBrAtXobKQHycD5fD-27" value="System" style="swimlane;whiteSpace=wrap;html=1;startSize=23;" parent="J_HoBrAtXobKQHycD5fD-2" vertex="1">
                    <mxGeometry x="700" y="23" width="130" height="687" as="geometry"/>
                </mxCell>
                <mxCell id="jsJ6bUkTsPZTwGdAlCoQ-19" style="edgeStyle=orthogonalEdgeStyle;html=1;" parent="J_HoBrAtXobKQHycD5fD-27" source="jsJ6bUkTsPZTwGdAlCoQ-12" target="jsJ6bUkTsPZTwGdAlCoQ-13" edge="1">
                    <mxGeometry relative="1" as="geometry"/>
                </mxCell>
                <mxCell id="jsJ6bUkTsPZTwGdAlCoQ-12" value="Record Data" style="whiteSpace=wrap;html=1;" parent="J_HoBrAtXobKQHycD5fD-27" vertex="1">
                    <mxGeometry x="22" y="137" width="86" height="63" as="geometry"/>
                </mxCell>
                <mxCell id="jsJ6bUkTsPZTwGdAlCoQ-13" value="End" style="ellipse;whiteSpace=wrap;html=1;" parent="J_HoBrAtXobKQHycD5fD-27" vertex="1">
                    <mxGeometry x="32.75" y="247" width="64.5" height="43" as="geometry"/>
                </mxCell>
                <mxCell id="jsJ6bUkTsPZTwGdAlCoQ-18" style="edgeStyle=orthogonalEdgeStyle;html=1;" parent="J_HoBrAtXobKQHycD5fD-27" source="jsJ6bUkTsPZTwGdAlCoQ-17" target="jsJ6bUkTsPZTwGdAlCoQ-12" edge="1">
                    <mxGeometry relative="1" as="geometry"/>
                </mxCell>
                <mxCell id="jsJ6bUkTsPZTwGdAlCoQ-17" value="B" style="ellipse;whiteSpace=wrap;html=1;" parent="J_HoBrAtXobKQHycD5fD-27" vertex="1">
                    <mxGeometry x="40.75" y="57" width="48.5" height="48.5" as="geometry"/>
                </mxCell>
                <mxCell id="jsJ6bUkTsPZTwGdAlCoQ-21" style="edgeStyle=orthogonalEdgeStyle;html=1;" parent="J_HoBrAtXobKQHycD5fD-27" source="jsJ6bUkTsPZTwGdAlCoQ-20" target="jsJ6bUkTsPZTwGdAlCoQ-13" edge="1">
                    <mxGeometry relative="1" as="geometry"/>
                </mxCell>
                <mxCell id="jsJ6bUkTsPZTwGdAlCoQ-20" value="A" style="ellipse;whiteSpace=wrap;html=1;" parent="J_HoBrAtXobKQHycD5fD-27" vertex="1">
                    <mxGeometry x="40.75" y="337" width="48.5" height="48.5" as="geometry"/>
                </mxCell>
                <mxCell id="pamyl5l8FKV7wxsov_2d-3" style="edgeStyle=none;html=1;" parent="J_HoBrAtXobKQHycD5fD-2" source="J_HoBrAtXobKQHycD5fD-7" target="pamyl5l8FKV7wxsov_2d-2" edge="1">
                    <mxGeometry relative="1" as="geometry"/>
                </mxCell>
                <mxCell id="jsJ6bUkTsPZTwGdAlCoQ-57" style="edgeStyle=orthogonalEdgeStyle;html=1;" parent="J_HoBrAtXobKQHycD5fD-2" source="pamyl5l8FKV7wxsov_2d-2" target="jsJ6bUkTsPZTwGdAlCoQ-22" edge="1">
                    <mxGeometry relative="1" as="geometry"/>
                </mxCell>
                <mxCell id="jsJ6bUkTsPZTwGdAlCoQ-58" value="" style="edgeStyle=orthogonalEdgeStyle;html=1;" parent="J_HoBrAtXobKQHycD5fD-2" source="jsJ6bUkTsPZTwGdAlCoQ-22" target="jsJ6bUkTsPZTwGdAlCoQ-55" edge="1">
                    <mxGeometry relative="1" as="geometry"/>
                </mxCell>
                <mxCell id="jsJ6bUkTsPZTwGdAlCoQ-59" value="" style="edgeStyle=orthogonalEdgeStyle;html=1;" parent="J_HoBrAtXobKQHycD5fD-2" source="jsJ6bUkTsPZTwGdAlCoQ-55" target="jsJ6bUkTsPZTwGdAlCoQ-56" edge="1">
                    <mxGeometry relative="1" as="geometry"/>
                </mxCell>
            </root>
        </mxGraphModel>
    </diagram>
    <diagram name="Flow Activity PMO" id="__rSq787U0h_hQOJMbbz">
        <mxGraphModel dx="816" dy="475" grid="1" gridSize="10" guides="1" tooltips="1" connect="1" arrows="1" fold="1" page="1" pageScale="1" pageWidth="850" pageHeight="1100" math="0" shadow="0">
            <root>
                <mxCell id="hVD_J0o_qhV90KZBzZbN-0"/>
                <mxCell id="hVD_J0o_qhV90KZBzZbN-1" parent="hVD_J0o_qhV90KZBzZbN-0"/>
                <mxCell id="hVD_J0o_qhV90KZBzZbN-2" value="Flow Proces Approval" style="swimlane;whiteSpace=wrap;html=1;" parent="hVD_J0o_qhV90KZBzZbN-1" vertex="1">
                    <mxGeometry x="10" y="10" width="1250" height="1470" as="geometry"/>
                </mxCell>
                <mxCell id="hVD_J0o_qhV90KZBzZbN-3" value="User" style="swimlane;whiteSpace=wrap;html=1;" parent="hVD_J0o_qhV90KZBzZbN-2" vertex="1">
                    <mxGeometry y="23" width="150" height="1447" as="geometry"/>
                </mxCell>
                <mxCell id="hVD_J0o_qhV90KZBzZbN-4" value="" style="edgeStyle=none;html=1;" parent="hVD_J0o_qhV90KZBzZbN-3" source="hVD_J0o_qhV90KZBzZbN-5" edge="1">
                    <mxGeometry relative="1" as="geometry">
                        <mxPoint x="75" y="137" as="targetPoint"/>
                    </mxGeometry>
                </mxCell>
                <mxCell id="hVD_J0o_qhV90KZBzZbN-5" value="Start" style="ellipse;whiteSpace=wrap;html=1;" parent="hVD_J0o_qhV90KZBzZbN-3" vertex="1">
                    <mxGeometry x="42.75" y="57" width="64.5" height="43" as="geometry"/>
                </mxCell>
                <mxCell id="hVD_J0o_qhV90KZBzZbN-6" style="edgeStyle=orthogonalEdgeStyle;html=1;entryX=0.5;entryY=0;entryDx=0;entryDy=0;" parent="hVD_J0o_qhV90KZBzZbN-3" source="hVD_J0o_qhV90KZBzZbN-7" target="hVD_J0o_qhV90KZBzZbN-8" edge="1">
                    <mxGeometry relative="1" as="geometry"/>
                </mxCell>
                <mxCell id="hVD_J0o_qhV90KZBzZbN-7" value="Fill/Edit Document&lt;br&gt;BizReq / CRF" style="whiteSpace=wrap;html=1;" parent="hVD_J0o_qhV90KZBzZbN-3" vertex="1">
                    <mxGeometry x="30" y="137" width="86" height="63" as="geometry"/>
                </mxCell>
                <mxCell id="hVD_J0o_qhV90KZBzZbN-8" value="Is Submit?" style="rhombus;whiteSpace=wrap;html=1;" parent="hVD_J0o_qhV90KZBzZbN-3" vertex="1">
                    <mxGeometry x="33" y="237" width="80" height="80" as="geometry"/>
                </mxCell>
                <mxCell id="hVD_J0o_qhV90KZBzZbN-9" value="SM User" style="swimlane;whiteSpace=wrap;html=1;" parent="hVD_J0o_qhV90KZBzZbN-2" vertex="1">
                    <mxGeometry x="150" y="23" width="120" height="1447" as="geometry"/>
                </mxCell>
                <mxCell id="hVD_J0o_qhV90KZBzZbN-10" style="edgeStyle=orthogonalEdgeStyle;html=1;" parent="hVD_J0o_qhV90KZBzZbN-9" source="hVD_J0o_qhV90KZBzZbN-11" target="hVD_J0o_qhV90KZBzZbN-12" edge="1">
                    <mxGeometry relative="1" as="geometry"/>
                </mxCell>
                <mxCell id="hVD_J0o_qhV90KZBzZbN-11" value="Review CRF/&lt;br&gt;BizReq" style="whiteSpace=wrap;html=1;" parent="hVD_J0o_qhV90KZBzZbN-9" vertex="1">
                    <mxGeometry x="15" y="367" width="86" height="63" as="geometry"/>
                </mxCell>
                <mxCell id="hVD_J0o_qhV90KZBzZbN-12" value="Is Approved?" style="rhombus;whiteSpace=wrap;html=1;" parent="hVD_J0o_qhV90KZBzZbN-9" vertex="1">
                    <mxGeometry x="18" y="237" width="80" height="80" as="geometry"/>
                </mxCell>
                <mxCell id="hVD_J0o_qhV90KZBzZbN-13" style="edgeStyle=orthogonalEdgeStyle;html=1;" parent="hVD_J0o_qhV90KZBzZbN-9" source="hVD_J0o_qhV90KZBzZbN-14" target="hVD_J0o_qhV90KZBzZbN-15" edge="1">
                    <mxGeometry relative="1" as="geometry"/>
                </mxCell>
                <mxCell id="hVD_J0o_qhV90KZBzZbN-14" value="Review&lt;br&gt;Bizcase" style="whiteSpace=wrap;html=1;" parent="hVD_J0o_qhV90KZBzZbN-9" vertex="1">
                    <mxGeometry x="12" y="765" width="86" height="63" as="geometry"/>
                </mxCell>
                <mxCell id="hVD_J0o_qhV90KZBzZbN-15" value="Is Approved?" style="rhombus;whiteSpace=wrap;html=1;" parent="hVD_J0o_qhV90KZBzZbN-9" vertex="1">
                    <mxGeometry x="16" y="887" width="80" height="80" as="geometry"/>
                </mxCell>
                <mxCell id="hVD_J0o_qhV90KZBzZbN-16" value="VP User" style="swimlane;whiteSpace=wrap;html=1;" parent="hVD_J0o_qhV90KZBzZbN-2" vertex="1">
                    <mxGeometry x="270" y="23" width="140" height="1447" as="geometry"/>
                </mxCell>
                <mxCell id="hVD_J0o_qhV90KZBzZbN-17" style="edgeStyle=orthogonalEdgeStyle;html=1;" parent="hVD_J0o_qhV90KZBzZbN-16" source="hVD_J0o_qhV90KZBzZbN-18" target="hVD_J0o_qhV90KZBzZbN-19" edge="1">
                    <mxGeometry relative="1" as="geometry"/>
                </mxCell>
                <mxCell id="hVD_J0o_qhV90KZBzZbN-18" value="Review CRF/&lt;br&gt;BizReq" style="whiteSpace=wrap;html=1;" parent="hVD_J0o_qhV90KZBzZbN-16" vertex="1">
                    <mxGeometry x="27" y="245.5" width="86" height="63" as="geometry"/>
                </mxCell>
                <mxCell id="hVD_J0o_qhV90KZBzZbN-19" value="Is Approved?" style="rhombus;whiteSpace=wrap;html=1;" parent="hVD_J0o_qhV90KZBzZbN-16" vertex="1">
                    <mxGeometry x="30" y="128" width="80" height="80" as="geometry"/>
                </mxCell>
                <mxCell id="hVD_J0o_qhV90KZBzZbN-20" style="edgeStyle=orthogonalEdgeStyle;html=1;" parent="hVD_J0o_qhV90KZBzZbN-16" source="hVD_J0o_qhV90KZBzZbN-21" target="hVD_J0o_qhV90KZBzZbN-22" edge="1">
                    <mxGeometry relative="1" as="geometry"/>
                </mxCell>
                <mxCell id="hVD_J0o_qhV90KZBzZbN-21" value="Review&lt;br&gt;Bizcase" style="whiteSpace=wrap;html=1;" parent="hVD_J0o_qhV90KZBzZbN-16" vertex="1">
                    <mxGeometry x="27" y="897" width="86" height="63" as="geometry"/>
                </mxCell>
                <mxCell id="hVD_J0o_qhV90KZBzZbN-22" value="Is Approved?" style="rhombus;whiteSpace=wrap;html=1;" parent="hVD_J0o_qhV90KZBzZbN-16" vertex="1">
                    <mxGeometry x="30" y="1037" width="80" height="80" as="geometry"/>
                </mxCell>
                <mxCell id="hVD_J0o_qhV90KZBzZbN-23" value="PMO" style="swimlane;whiteSpace=wrap;html=1;startSize=23;" parent="hVD_J0o_qhV90KZBzZbN-2" vertex="1">
                    <mxGeometry x="410" y="23" width="140" height="1447" as="geometry"/>
                </mxCell>
                <mxCell id="hVD_J0o_qhV90KZBzZbN-24" value="Decide project&lt;br&gt;Scale" style="whiteSpace=wrap;html=1;" parent="hVD_J0o_qhV90KZBzZbN-23" vertex="1">
                    <mxGeometry x="27" y="136.5" width="86" height="63" as="geometry"/>
                </mxCell>
                <mxCell id="hVD_J0o_qhV90KZBzZbN-25" value="SM PMO" style="swimlane;whiteSpace=wrap;html=1;startSize=23;" parent="hVD_J0o_qhV90KZBzZbN-2" vertex="1">
                    <mxGeometry x="550" y="23" width="140" height="1447" as="geometry"/>
                </mxCell>
                <mxCell id="hVD_J0o_qhV90KZBzZbN-26" style="edgeStyle=orthogonalEdgeStyle;html=1;" parent="hVD_J0o_qhV90KZBzZbN-25" source="hVD_J0o_qhV90KZBzZbN-28" target="hVD_J0o_qhV90KZBzZbN-29" edge="1">
                    <mxGeometry relative="1" as="geometry"/>
                </mxCell>
                <mxCell id="hVD_J0o_qhV90KZBzZbN-27" value="No" style="edgeLabel;html=1;align=center;verticalAlign=middle;resizable=0;points=[];" parent="hVD_J0o_qhV90KZBzZbN-26" vertex="1" connectable="0">
                    <mxGeometry x="-0.4192" relative="1" as="geometry">
                        <mxPoint as="offset"/>
                    </mxGeometry>
                </mxCell>
                <mxCell id="hVD_J0o_qhV90KZBzZbN-28" value="Is Approved?" style="rhombus;whiteSpace=wrap;html=1;" parent="hVD_J0o_qhV90KZBzZbN-25" vertex="1">
                    <mxGeometry x="28" y="237" width="80" height="80" as="geometry"/>
                </mxCell>
                <mxCell id="hVD_J0o_qhV90KZBzZbN-29" value="End" style="ellipse;whiteSpace=wrap;html=1;" parent="hVD_J0o_qhV90KZBzZbN-25" vertex="1">
                    <mxGeometry x="35.75" y="367" width="64.5" height="43" as="geometry"/>
                </mxCell>
                <mxCell id="hVD_J0o_qhV90KZBzZbN-30" style="edgeStyle=orthogonalEdgeStyle;html=1;" parent="hVD_J0o_qhV90KZBzZbN-25" source="hVD_J0o_qhV90KZBzZbN-31" target="hVD_J0o_qhV90KZBzZbN-28" edge="1">
                    <mxGeometry relative="1" as="geometry"/>
                </mxCell>
                <mxCell id="hVD_J0o_qhV90KZBzZbN-31" value="Review CRF/&lt;br&gt;BizReq" style="whiteSpace=wrap;html=1;" parent="hVD_J0o_qhV90KZBzZbN-25" vertex="1">
                    <mxGeometry x="25" y="137" width="86" height="63" as="geometry"/>
                </mxCell>
                <mxCell id="hVD_J0o_qhV90KZBzZbN-32" value="Manager SME" style="swimlane;whiteSpace=wrap;html=1;startSize=23;" parent="hVD_J0o_qhV90KZBzZbN-2" vertex="1">
                    <mxGeometry x="690" y="23" width="140" height="1447" as="geometry"/>
                </mxCell>
                <mxCell id="hVD_J0o_qhV90KZBzZbN-33" value="Select SME" style="whiteSpace=wrap;html=1;" parent="hVD_J0o_qhV90KZBzZbN-32" vertex="1">
                    <mxGeometry x="25" y="245.5" width="86" height="63" as="geometry"/>
                </mxCell>
                <mxCell id="hVD_J0o_qhV90KZBzZbN-34" style="edgeStyle=orthogonalEdgeStyle;html=1;" parent="hVD_J0o_qhV90KZBzZbN-32" source="hVD_J0o_qhV90KZBzZbN-35" target="hVD_J0o_qhV90KZBzZbN-36" edge="1">
                    <mxGeometry relative="1" as="geometry"/>
                </mxCell>
                <mxCell id="hVD_J0o_qhV90KZBzZbN-35" value="Review CRF/&lt;br&gt;BizReq" style="whiteSpace=wrap;html=1;" parent="hVD_J0o_qhV90KZBzZbN-32" vertex="1">
                    <mxGeometry x="25" y="367" width="86" height="63" as="geometry"/>
                </mxCell>
                <mxCell id="hVD_J0o_qhV90KZBzZbN-36" value="Is Approved?" style="rhombus;whiteSpace=wrap;html=1;" parent="hVD_J0o_qhV90KZBzZbN-32" vertex="1">
                    <mxGeometry x="29" y="487" width="80" height="80" as="geometry"/>
                </mxCell>
                <mxCell id="hVD_J0o_qhV90KZBzZbN-37" style="edgeStyle=orthogonalEdgeStyle;html=1;entryX=0;entryY=0.5;entryDx=0;entryDy=0;exitX=0.5;exitY=1;exitDx=0;exitDy=0;" parent="hVD_J0o_qhV90KZBzZbN-2" source="hVD_J0o_qhV90KZBzZbN-8" target="hVD_J0o_qhV90KZBzZbN-11" edge="1">
                    <mxGeometry relative="1" as="geometry"/>
                </mxCell>
                <mxCell id="hVD_J0o_qhV90KZBzZbN-38" value="Yes" style="edgeLabel;html=1;align=center;verticalAlign=middle;resizable=0;points=[];" parent="hVD_J0o_qhV90KZBzZbN-37" vertex="1" connectable="0">
                    <mxGeometry x="-0.2308" y="-3" relative="1" as="geometry">
                        <mxPoint as="offset"/>
                    </mxGeometry>
                </mxCell>
                <mxCell id="hVD_J0o_qhV90KZBzZbN-39" style="edgeStyle=orthogonalEdgeStyle;html=1;" parent="hVD_J0o_qhV90KZBzZbN-2" source="hVD_J0o_qhV90KZBzZbN-28" target="hVD_J0o_qhV90KZBzZbN-33" edge="1">
                    <mxGeometry relative="1" as="geometry"/>
                </mxCell>
                <mxCell id="hVD_J0o_qhV90KZBzZbN-40" value="Yes" style="edgeLabel;html=1;align=center;verticalAlign=middle;resizable=0;points=[];" parent="hVD_J0o_qhV90KZBzZbN-39" vertex="1" connectable="0">
                    <mxGeometry x="-0.3889" y="-2" relative="1" as="geometry">
                        <mxPoint as="offset"/>
                    </mxGeometry>
                </mxCell>
                <mxCell id="hVD_J0o_qhV90KZBzZbN-41" style="edgeStyle=orthogonalEdgeStyle;html=1;entryX=1;entryY=0.5;entryDx=0;entryDy=0;exitX=0.5;exitY=0;exitDx=0;exitDy=0;" parent="hVD_J0o_qhV90KZBzZbN-2" source="hVD_J0o_qhV90KZBzZbN-12" target="hVD_J0o_qhV90KZBzZbN-7" edge="1">
                    <mxGeometry relative="1" as="geometry"/>
                </mxCell>
                <mxCell id="hVD_J0o_qhV90KZBzZbN-42" value="No" style="edgeLabel;html=1;align=center;verticalAlign=middle;resizable=0;points=[];" parent="hVD_J0o_qhV90KZBzZbN-41" vertex="1" connectable="0">
                    <mxGeometry x="-0.5888" y="-1" relative="1" as="geometry">
                        <mxPoint as="offset"/>
                    </mxGeometry>
                </mxCell>
                <mxCell id="hVD_J0o_qhV90KZBzZbN-43" style="edgeStyle=orthogonalEdgeStyle;html=1;entryX=0;entryY=0.5;entryDx=0;entryDy=0;" parent="hVD_J0o_qhV90KZBzZbN-2" source="hVD_J0o_qhV90KZBzZbN-12" target="hVD_J0o_qhV90KZBzZbN-18" edge="1">
                    <mxGeometry relative="1" as="geometry"/>
                </mxCell>
                <mxCell id="hVD_J0o_qhV90KZBzZbN-44" value="Yes" style="edgeLabel;html=1;align=center;verticalAlign=middle;resizable=0;points=[];" parent="hVD_J0o_qhV90KZBzZbN-43" vertex="1" connectable="0">
                    <mxGeometry x="-0.3469" relative="1" as="geometry">
                        <mxPoint as="offset"/>
                    </mxGeometry>
                </mxCell>
                <mxCell id="hVD_J0o_qhV90KZBzZbN-45" style="edgeStyle=orthogonalEdgeStyle;html=1;entryX=0;entryY=0.5;entryDx=0;entryDy=0;" parent="hVD_J0o_qhV90KZBzZbN-2" source="hVD_J0o_qhV90KZBzZbN-19" target="hVD_J0o_qhV90KZBzZbN-24" edge="1">
                    <mxGeometry relative="1" as="geometry"/>
                </mxCell>
                <mxCell id="hVD_J0o_qhV90KZBzZbN-46" value="Yes" style="edgeLabel;html=1;align=center;verticalAlign=middle;resizable=0;points=[];" parent="hVD_J0o_qhV90KZBzZbN-45" vertex="1" connectable="0">
                    <mxGeometry x="-0.2632" relative="1" as="geometry">
                        <mxPoint as="offset"/>
                    </mxGeometry>
                </mxCell>
                <mxCell id="hVD_J0o_qhV90KZBzZbN-47" style="edgeStyle=orthogonalEdgeStyle;html=1;entryX=0.5;entryY=1;entryDx=0;entryDy=0;exitX=0;exitY=0.5;exitDx=0;exitDy=0;" parent="hVD_J0o_qhV90KZBzZbN-2" source="hVD_J0o_qhV90KZBzZbN-8" target="hVD_J0o_qhV90KZBzZbN-29" edge="1">
                    <mxGeometry relative="1" as="geometry">
                        <mxPoint x="73" y="380" as="targetPoint"/>
                        <Array as="points">
                            <mxPoint x="23" y="300"/>
                            <mxPoint x="23" y="480"/>
                            <mxPoint x="618" y="480"/>
                        </Array>
                    </mxGeometry>
                </mxCell>
                <mxCell id="hVD_J0o_qhV90KZBzZbN-48" value="No" style="edgeLabel;html=1;align=center;verticalAlign=middle;resizable=0;points=[];" parent="hVD_J0o_qhV90KZBzZbN-47" vertex="1" connectable="0">
                    <mxGeometry x="0.0025" y="2" relative="1" as="geometry">
                        <mxPoint as="offset"/>
                    </mxGeometry>
                </mxCell>
                <mxCell id="hVD_J0o_qhV90KZBzZbN-49" style="edgeStyle=orthogonalEdgeStyle;html=1;entryX=1;entryY=0.5;entryDx=0;entryDy=0;" parent="hVD_J0o_qhV90KZBzZbN-2" source="hVD_J0o_qhV90KZBzZbN-19" target="hVD_J0o_qhV90KZBzZbN-7" edge="1">
                    <mxGeometry relative="1" as="geometry"/>
                </mxCell>
                <mxCell id="hVD_J0o_qhV90KZBzZbN-50" value="No" style="edgeLabel;html=1;align=center;verticalAlign=middle;resizable=0;points=[];" parent="hVD_J0o_qhV90KZBzZbN-49" vertex="1" connectable="0">
                    <mxGeometry x="-0.6098" y="2" relative="1" as="geometry">
                        <mxPoint as="offset"/>
                    </mxGeometry>
                </mxCell>
                <mxCell id="hVD_J0o_qhV90KZBzZbN-51" style="edgeStyle=orthogonalEdgeStyle;html=1;" parent="hVD_J0o_qhV90KZBzZbN-2" source="hVD_J0o_qhV90KZBzZbN-24" target="hVD_J0o_qhV90KZBzZbN-31" edge="1">
                    <mxGeometry relative="1" as="geometry"/>
                </mxCell>
                <mxCell id="hVD_J0o_qhV90KZBzZbN-52" style="edgeStyle=orthogonalEdgeStyle;html=1;" parent="hVD_J0o_qhV90KZBzZbN-2" source="hVD_J0o_qhV90KZBzZbN-15" target="hVD_J0o_qhV90KZBzZbN-21" edge="1">
                    <mxGeometry relative="1" as="geometry"/>
                </mxCell>
                <mxCell id="hVD_J0o_qhV90KZBzZbN-53" value="Yes" style="edgeLabel;html=1;align=center;verticalAlign=middle;resizable=0;points=[];" parent="hVD_J0o_qhV90KZBzZbN-52" vertex="1" connectable="0">
                    <mxGeometry x="-0.4726" y="-2" relative="1" as="geometry">
                        <mxPoint as="offset"/>
                    </mxGeometry>
                </mxCell>
                <mxCell id="hVD_J0o_qhV90KZBzZbN-54" value="SME" style="swimlane;whiteSpace=wrap;html=1;startSize=23;" parent="hVD_J0o_qhV90KZBzZbN-1" vertex="1">
                    <mxGeometry x="840" y="33" width="140" height="1447" as="geometry"/>
                </mxCell>
                <mxCell id="hVD_J0o_qhV90KZBzZbN-55" value="Fill/Edit solution" style="whiteSpace=wrap;html=1;" parent="hVD_J0o_qhV90KZBzZbN-54" vertex="1">
                    <mxGeometry x="25" y="245.5" width="86" height="63" as="geometry"/>
                </mxCell>
                <mxCell id="hVD_J0o_qhV90KZBzZbN-56" value="SM IT" style="swimlane;whiteSpace=wrap;html=1;startSize=23;" parent="hVD_J0o_qhV90KZBzZbN-1" vertex="1">
                    <mxGeometry x="980" y="33" width="140" height="1447" as="geometry"/>
                </mxCell>
                <mxCell id="hVD_J0o_qhV90KZBzZbN-57" style="edgeStyle=orthogonalEdgeStyle;html=1;" parent="hVD_J0o_qhV90KZBzZbN-56" source="hVD_J0o_qhV90KZBzZbN-58" target="hVD_J0o_qhV90KZBzZbN-61" edge="1">
                    <mxGeometry relative="1" as="geometry"/>
                </mxCell>
                <mxCell id="hVD_J0o_qhV90KZBzZbN-58" value="Review CRF/&lt;br&gt;BizReq" style="whiteSpace=wrap;html=1;" parent="hVD_J0o_qhV90KZBzZbN-56" vertex="1">
                    <mxGeometry x="27" y="495.5" width="86" height="63" as="geometry"/>
                </mxCell>
                <mxCell id="hVD_J0o_qhV90KZBzZbN-59" style="edgeStyle=orthogonalEdgeStyle;html=1;entryX=0.5;entryY=0;entryDx=0;entryDy=0;" parent="hVD_J0o_qhV90KZBzZbN-56" source="hVD_J0o_qhV90KZBzZbN-61" target="hVD_J0o_qhV90KZBzZbN-62" edge="1">
                    <mxGeometry relative="1" as="geometry"/>
                </mxCell>
                <mxCell id="hVD_J0o_qhV90KZBzZbN-60" value="Yes" style="edgeLabel;html=1;align=center;verticalAlign=middle;resizable=0;points=[];" parent="hVD_J0o_qhV90KZBzZbN-59" vertex="1" connectable="0">
                    <mxGeometry x="-0.2673" relative="1" as="geometry">
                        <mxPoint as="offset"/>
                    </mxGeometry>
                </mxCell>
                <mxCell id="hVD_J0o_qhV90KZBzZbN-61" value="Is Approved?" style="rhombus;whiteSpace=wrap;html=1;" parent="hVD_J0o_qhV90KZBzZbN-56" vertex="1">
                    <mxGeometry x="31" y="627" width="80" height="80" as="geometry"/>
                </mxCell>
                <mxCell id="hVD_J0o_qhV90KZBzZbN-62" value="Is Bizreq?" style="rhombus;whiteSpace=wrap;html=1;" parent="hVD_J0o_qhV90KZBzZbN-56" vertex="1">
                    <mxGeometry x="30" y="757" width="80" height="80" as="geometry"/>
                </mxCell>
                <mxCell id="hVD_J0o_qhV90KZBzZbN-63" style="edgeStyle=orthogonalEdgeStyle;html=1;" parent="hVD_J0o_qhV90KZBzZbN-1" source="hVD_J0o_qhV90KZBzZbN-33" target="hVD_J0o_qhV90KZBzZbN-55" edge="1">
                    <mxGeometry relative="1" as="geometry"/>
                </mxCell>
                <mxCell id="hVD_J0o_qhV90KZBzZbN-64" style="edgeStyle=orthogonalEdgeStyle;html=1;entryX=1;entryY=0.5;entryDx=0;entryDy=0;exitX=0.5;exitY=1;exitDx=0;exitDy=0;" parent="hVD_J0o_qhV90KZBzZbN-1" source="hVD_J0o_qhV90KZBzZbN-55" target="hVD_J0o_qhV90KZBzZbN-35" edge="1">
                    <mxGeometry relative="1" as="geometry"/>
                </mxCell>
                <mxCell id="hVD_J0o_qhV90KZBzZbN-65" style="edgeStyle=orthogonalEdgeStyle;html=1;" parent="hVD_J0o_qhV90KZBzZbN-1" source="hVD_J0o_qhV90KZBzZbN-36" target="hVD_J0o_qhV90KZBzZbN-58" edge="1">
                    <mxGeometry relative="1" as="geometry"/>
                </mxCell>
                <mxCell id="hVD_J0o_qhV90KZBzZbN-66" value="Yes" style="edgeLabel;html=1;align=center;verticalAlign=middle;resizable=0;points=[];" parent="hVD_J0o_qhV90KZBzZbN-65" vertex="1" connectable="0">
                    <mxGeometry x="-0.7205" y="-4" relative="1" as="geometry">
                        <mxPoint as="offset"/>
                    </mxGeometry>
                </mxCell>
                <mxCell id="hVD_J0o_qhV90KZBzZbN-67" style="edgeStyle=orthogonalEdgeStyle;html=1;entryX=1;entryY=0.5;entryDx=0;entryDy=0;exitX=1;exitY=0.5;exitDx=0;exitDy=0;" parent="hVD_J0o_qhV90KZBzZbN-1" source="hVD_J0o_qhV90KZBzZbN-61" target="hVD_J0o_qhV90KZBzZbN-55" edge="1">
                    <mxGeometry relative="1" as="geometry">
                        <Array as="points">
                            <mxPoint x="1110" y="700"/>
                            <mxPoint x="1110" y="310"/>
                        </Array>
                    </mxGeometry>
                </mxCell>
                <mxCell id="hVD_J0o_qhV90KZBzZbN-68" style="edgeStyle=orthogonalEdgeStyle;html=1;entryX=1;entryY=0.5;entryDx=0;entryDy=0;" parent="hVD_J0o_qhV90KZBzZbN-1" source="hVD_J0o_qhV90KZBzZbN-62" target="hVD_J0o_qhV90KZBzZbN-14" edge="1">
                    <mxGeometry relative="1" as="geometry"/>
                </mxCell>
                <mxCell id="hVD_J0o_qhV90KZBzZbN-69" value="VP IT" style="swimlane;whiteSpace=wrap;html=1;startSize=23;" parent="hVD_J0o_qhV90KZBzZbN-1" vertex="1">
                    <mxGeometry x="1120" y="33" width="140" height="1447" as="geometry"/>
                </mxCell>
                <mxCell id="hVD_J0o_qhV90KZBzZbN-70" style="edgeStyle=orthogonalEdgeStyle;html=1;" parent="hVD_J0o_qhV90KZBzZbN-69" source="hVD_J0o_qhV90KZBzZbN-71" target="hVD_J0o_qhV90KZBzZbN-72" edge="1">
                    <mxGeometry relative="1" as="geometry"/>
                </mxCell>
                <mxCell id="hVD_J0o_qhV90KZBzZbN-71" value="Review CRF/&lt;br&gt;BizReq / Bizcase" style="whiteSpace=wrap;html=1;" parent="hVD_J0o_qhV90KZBzZbN-69" vertex="1">
                    <mxGeometry x="27" y="1045" width="86" height="63" as="geometry"/>
                </mxCell>
                <mxCell id="hVD_J0o_qhV90KZBzZbN-72" value="Is Approved?" style="rhombus;whiteSpace=wrap;html=1;" parent="hVD_J0o_qhV90KZBzZbN-69" vertex="1">
                    <mxGeometry x="31" y="1176.5" width="80" height="80" as="geometry"/>
                </mxCell>
                <mxCell id="hVD_J0o_qhV90KZBzZbN-73" style="edgeStyle=orthogonalEdgeStyle;html=1;entryX=0;entryY=0.5;entryDx=0;entryDy=0;" parent="hVD_J0o_qhV90KZBzZbN-1" source="hVD_J0o_qhV90KZBzZbN-22" target="hVD_J0o_qhV90KZBzZbN-71" edge="1">
                    <mxGeometry relative="1" as="geometry"/>
                </mxCell>
                <mxCell id="hVD_J0o_qhV90KZBzZbN-74" value="Yes" style="edgeLabel;html=1;align=center;verticalAlign=middle;resizable=0;points=[];" parent="hVD_J0o_qhV90KZBzZbN-73" vertex="1" connectable="0">
                    <mxGeometry x="-0.956" y="1" relative="1" as="geometry">
                        <mxPoint x="1" as="offset"/>
                    </mxGeometry>
                </mxCell>
                <mxCell id="hVD_J0o_qhV90KZBzZbN-75" style="edgeStyle=orthogonalEdgeStyle;html=1;entryX=0.5;entryY=0;entryDx=0;entryDy=0;" parent="hVD_J0o_qhV90KZBzZbN-1" source="hVD_J0o_qhV90KZBzZbN-62" target="hVD_J0o_qhV90KZBzZbN-71" edge="1">
                    <mxGeometry relative="1" as="geometry"/>
                </mxCell>
                <mxCell id="hVD_J0o_qhV90KZBzZbN-76" style="edgeStyle=orthogonalEdgeStyle;html=1;entryX=0.5;entryY=1;entryDx=0;entryDy=0;exitX=0.5;exitY=1;exitDx=0;exitDy=0;" parent="hVD_J0o_qhV90KZBzZbN-1" source="hVD_J0o_qhV90KZBzZbN-15" target="hVD_J0o_qhV90KZBzZbN-55" edge="1">
                    <mxGeometry relative="1" as="geometry">
                        <Array as="points">
                            <mxPoint x="216" y="1040"/>
                            <mxPoint x="120" y="1040"/>
                            <mxPoint x="120" y="631"/>
                            <mxPoint x="908" y="631"/>
                        </Array>
                    </mxGeometry>
                </mxCell>
                <mxCell id="hVD_J0o_qhV90KZBzZbN-77" value="No" style="edgeLabel;html=1;align=center;verticalAlign=middle;resizable=0;points=[];" parent="hVD_J0o_qhV90KZBzZbN-76" vertex="1" connectable="0">
                    <mxGeometry x="-0.9836" y="1" relative="1" as="geometry">
                        <mxPoint as="offset"/>
                    </mxGeometry>
                </mxCell>
                <mxCell id="hVD_J0o_qhV90KZBzZbN-78" style="edgeStyle=orthogonalEdgeStyle;html=1;entryX=0.5;entryY=1;entryDx=0;entryDy=0;exitX=0.5;exitY=1;exitDx=0;exitDy=0;" parent="hVD_J0o_qhV90KZBzZbN-1" source="hVD_J0o_qhV90KZBzZbN-22" target="hVD_J0o_qhV90KZBzZbN-55" edge="1">
                    <mxGeometry relative="1" as="geometry">
                        <Array as="points">
                            <mxPoint x="350" y="1220"/>
                            <mxPoint x="908" y="1220"/>
                        </Array>
                    </mxGeometry>
                </mxCell>
                <mxCell id="hVD_J0o_qhV90KZBzZbN-79" value="No" style="edgeLabel;html=1;align=center;verticalAlign=middle;resizable=0;points=[];" parent="hVD_J0o_qhV90KZBzZbN-78" vertex="1" connectable="0">
                    <mxGeometry x="-0.9655" y="-1" relative="1" as="geometry">
                        <mxPoint y="1" as="offset"/>
                    </mxGeometry>
                </mxCell>
                <mxCell id="hVD_J0o_qhV90KZBzZbN-80" style="edgeStyle=orthogonalEdgeStyle;html=1;entryX=0.5;entryY=0;entryDx=0;entryDy=0;" parent="hVD_J0o_qhV90KZBzZbN-1" source="hVD_J0o_qhV90KZBzZbN-72" target="hVD_J0o_qhV90KZBzZbN-55" edge="1">
                    <mxGeometry relative="1" as="geometry">
                        <Array as="points">
                            <mxPoint x="1250" y="1249"/>
                            <mxPoint x="1250" y="220"/>
                            <mxPoint x="908" y="220"/>
                        </Array>
                    </mxGeometry>
                </mxCell>
            </root>
        </mxGraphModel>
    </diagram>
    <diagram name="Copy of Approval" id="8J563EvyWlHrlo2ZmIMU">
        <mxGraphModel dx="816" dy="475" grid="1" gridSize="10" guides="1" tooltips="1" connect="1" arrows="1" fold="1" page="1" pageScale="1" pageWidth="850" pageHeight="1100" math="0" shadow="0">
            <root>
                <mxCell id="wasfgfWo0gfHAaKg0Rm5-0"/>
                <mxCell id="wasfgfWo0gfHAaKg0Rm5-1" parent="wasfgfWo0gfHAaKg0Rm5-0"/>
                <mxCell id="wasfgfWo0gfHAaKg0Rm5-2" value="Flow Proces Approval" style="swimlane;whiteSpace=wrap;html=1;" parent="wasfgfWo0gfHAaKg0Rm5-1" vertex="1">
                    <mxGeometry x="10" y="10" width="830" height="510" as="geometry"/>
                </mxCell>
                <mxCell id="wasfgfWo0gfHAaKg0Rm5-3" value="User" style="swimlane;whiteSpace=wrap;html=1;" parent="wasfgfWo0gfHAaKg0Rm5-2" vertex="1">
                    <mxGeometry y="23" width="150" height="487" as="geometry"/>
                </mxCell>
                <mxCell id="wasfgfWo0gfHAaKg0Rm5-4" value="" style="edgeStyle=none;html=1;" parent="wasfgfWo0gfHAaKg0Rm5-3" source="wasfgfWo0gfHAaKg0Rm5-5" edge="1">
                    <mxGeometry relative="1" as="geometry">
                        <mxPoint x="75" y="137" as="targetPoint"/>
                    </mxGeometry>
                </mxCell>
                <mxCell id="wasfgfWo0gfHAaKg0Rm5-5" value="Start" style="ellipse;whiteSpace=wrap;html=1;" parent="wasfgfWo0gfHAaKg0Rm5-3" vertex="1">
                    <mxGeometry x="42.75" y="57" width="64.5" height="43" as="geometry"/>
                </mxCell>
                <mxCell id="wasfgfWo0gfHAaKg0Rm5-6" style="edgeStyle=orthogonalEdgeStyle;html=1;entryX=0.5;entryY=0;entryDx=0;entryDy=0;" parent="wasfgfWo0gfHAaKg0Rm5-3" source="wasfgfWo0gfHAaKg0Rm5-7" target="wasfgfWo0gfHAaKg0Rm5-8" edge="1">
                    <mxGeometry relative="1" as="geometry"/>
                </mxCell>
                <mxCell id="wasfgfWo0gfHAaKg0Rm5-7" value="Fill/Edit Document&lt;br&gt;BizReq / CRF" style="whiteSpace=wrap;html=1;" parent="wasfgfWo0gfHAaKg0Rm5-3" vertex="1">
                    <mxGeometry x="30" y="137" width="86" height="63" as="geometry"/>
                </mxCell>
                <mxCell id="wasfgfWo0gfHAaKg0Rm5-8" value="Is Submit?" style="rhombus;whiteSpace=wrap;html=1;" parent="wasfgfWo0gfHAaKg0Rm5-3" vertex="1">
                    <mxGeometry x="33" y="237" width="80" height="80" as="geometry"/>
                </mxCell>
                <mxCell id="wasfgfWo0gfHAaKg0Rm5-9" value="SM User" style="swimlane;whiteSpace=wrap;html=1;" parent="wasfgfWo0gfHAaKg0Rm5-2" vertex="1">
                    <mxGeometry x="150" y="23" width="120" height="487" as="geometry"/>
                </mxCell>
                <mxCell id="wasfgfWo0gfHAaKg0Rm5-10" style="edgeStyle=orthogonalEdgeStyle;html=1;" parent="wasfgfWo0gfHAaKg0Rm5-9" source="wasfgfWo0gfHAaKg0Rm5-11" target="wasfgfWo0gfHAaKg0Rm5-12" edge="1">
                    <mxGeometry relative="1" as="geometry"/>
                </mxCell>
                <mxCell id="wasfgfWo0gfHAaKg0Rm5-11" value="Review CRF/&lt;br&gt;BizReq" style="whiteSpace=wrap;html=1;" parent="wasfgfWo0gfHAaKg0Rm5-9" vertex="1">
                    <mxGeometry x="15" y="367" width="86" height="63" as="geometry"/>
                </mxCell>
                <mxCell id="wasfgfWo0gfHAaKg0Rm5-12" value="Is Approved?" style="rhombus;whiteSpace=wrap;html=1;" parent="wasfgfWo0gfHAaKg0Rm5-9" vertex="1">
                    <mxGeometry x="18" y="237" width="80" height="80" as="geometry"/>
                </mxCell>
                <mxCell id="wasfgfWo0gfHAaKg0Rm5-13" value="VP User" style="swimlane;whiteSpace=wrap;html=1;" parent="wasfgfWo0gfHAaKg0Rm5-2" vertex="1">
                    <mxGeometry x="270" y="23" width="140" height="487" as="geometry"/>
                </mxCell>
                <mxCell id="wasfgfWo0gfHAaKg0Rm5-14" style="edgeStyle=orthogonalEdgeStyle;html=1;" parent="wasfgfWo0gfHAaKg0Rm5-13" source="wasfgfWo0gfHAaKg0Rm5-15" target="wasfgfWo0gfHAaKg0Rm5-16" edge="1">
                    <mxGeometry relative="1" as="geometry"/>
                </mxCell>
                <mxCell id="wasfgfWo0gfHAaKg0Rm5-15" value="Review CRF/&lt;br&gt;BizReq" style="whiteSpace=wrap;html=1;" parent="wasfgfWo0gfHAaKg0Rm5-13" vertex="1">
                    <mxGeometry x="27" y="245.5" width="86" height="63" as="geometry"/>
                </mxCell>
                <mxCell id="wasfgfWo0gfHAaKg0Rm5-16" value="Is Approved?" style="rhombus;whiteSpace=wrap;html=1;" parent="wasfgfWo0gfHAaKg0Rm5-13" vertex="1">
                    <mxGeometry x="30" y="128" width="80" height="80" as="geometry"/>
                </mxCell>
                <mxCell id="wasfgfWo0gfHAaKg0Rm5-17" value="PMO" style="swimlane;whiteSpace=wrap;html=1;startSize=23;" parent="wasfgfWo0gfHAaKg0Rm5-2" vertex="1">
                    <mxGeometry x="410" y="23" width="140" height="487" as="geometry"/>
                </mxCell>
                <mxCell id="wasfgfWo0gfHAaKg0Rm5-18" value="Decide project&lt;br&gt;Type" style="whiteSpace=wrap;html=1;" parent="wasfgfWo0gfHAaKg0Rm5-17" vertex="1">
                    <mxGeometry x="27" y="136.5" width="86" height="63" as="geometry"/>
                </mxCell>
                <mxCell id="wasfgfWo0gfHAaKg0Rm5-19" value="SM PMO" style="swimlane;whiteSpace=wrap;html=1;startSize=23;" parent="wasfgfWo0gfHAaKg0Rm5-2" vertex="1">
                    <mxGeometry x="550" y="23" width="140" height="487" as="geometry"/>
                </mxCell>
                <mxCell id="wasfgfWo0gfHAaKg0Rm5-20" style="edgeStyle=orthogonalEdgeStyle;html=1;" parent="wasfgfWo0gfHAaKg0Rm5-19" source="wasfgfWo0gfHAaKg0Rm5-22" target="wasfgfWo0gfHAaKg0Rm5-23" edge="1">
                    <mxGeometry relative="1" as="geometry"/>
                </mxCell>
                <mxCell id="wasfgfWo0gfHAaKg0Rm5-21" value="No" style="edgeLabel;html=1;align=center;verticalAlign=middle;resizable=0;points=[];" parent="wasfgfWo0gfHAaKg0Rm5-20" vertex="1" connectable="0">
                    <mxGeometry x="-0.4192" relative="1" as="geometry">
                        <mxPoint as="offset"/>
                    </mxGeometry>
                </mxCell>
                <mxCell id="wasfgfWo0gfHAaKg0Rm5-22" value="Is Approved?" style="rhombus;whiteSpace=wrap;html=1;" parent="wasfgfWo0gfHAaKg0Rm5-19" vertex="1">
                    <mxGeometry x="28" y="237" width="80" height="80" as="geometry"/>
                </mxCell>
                <mxCell id="wasfgfWo0gfHAaKg0Rm5-23" value="End" style="ellipse;whiteSpace=wrap;html=1;" parent="wasfgfWo0gfHAaKg0Rm5-19" vertex="1">
                    <mxGeometry x="35.75" y="367" width="64.5" height="43" as="geometry"/>
                </mxCell>
                <mxCell id="wasfgfWo0gfHAaKg0Rm5-24" value="System" style="swimlane;whiteSpace=wrap;html=1;startSize=23;" parent="wasfgfWo0gfHAaKg0Rm5-2" vertex="1">
                    <mxGeometry x="690" y="23" width="140" height="487" as="geometry"/>
                </mxCell>
                <mxCell id="wasfgfWo0gfHAaKg0Rm5-25" value="Move to Project&lt;br&gt;Menu" style="whiteSpace=wrap;html=1;" parent="wasfgfWo0gfHAaKg0Rm5-24" vertex="1">
                    <mxGeometry x="25" y="245.5" width="86" height="63" as="geometry"/>
                </mxCell>
                <mxCell id="wasfgfWo0gfHAaKg0Rm5-26" style="edgeStyle=orthogonalEdgeStyle;html=1;entryX=0;entryY=0.5;entryDx=0;entryDy=0;exitX=0.5;exitY=1;exitDx=0;exitDy=0;" parent="wasfgfWo0gfHAaKg0Rm5-2" source="wasfgfWo0gfHAaKg0Rm5-8" target="wasfgfWo0gfHAaKg0Rm5-11" edge="1">
                    <mxGeometry relative="1" as="geometry"/>
                </mxCell>
                <mxCell id="wasfgfWo0gfHAaKg0Rm5-27" value="Yes" style="edgeLabel;html=1;align=center;verticalAlign=middle;resizable=0;points=[];" parent="wasfgfWo0gfHAaKg0Rm5-26" vertex="1" connectable="0">
                    <mxGeometry x="-0.2308" y="-3" relative="1" as="geometry">
                        <mxPoint as="offset"/>
                    </mxGeometry>
                </mxCell>
                <mxCell id="wasfgfWo0gfHAaKg0Rm5-28" style="edgeStyle=orthogonalEdgeStyle;html=1;" parent="wasfgfWo0gfHAaKg0Rm5-2" source="wasfgfWo0gfHAaKg0Rm5-18" target="wasfgfWo0gfHAaKg0Rm5-22" edge="1">
                    <mxGeometry relative="1" as="geometry"/>
                </mxCell>
                <mxCell id="wasfgfWo0gfHAaKg0Rm5-29" style="edgeStyle=orthogonalEdgeStyle;html=1;" parent="wasfgfWo0gfHAaKg0Rm5-2" source="wasfgfWo0gfHAaKg0Rm5-22" target="wasfgfWo0gfHAaKg0Rm5-25" edge="1">
                    <mxGeometry relative="1" as="geometry"/>
                </mxCell>
                <mxCell id="wasfgfWo0gfHAaKg0Rm5-30" value="Yes" style="edgeLabel;html=1;align=center;verticalAlign=middle;resizable=0;points=[];" parent="wasfgfWo0gfHAaKg0Rm5-29" vertex="1" connectable="0">
                    <mxGeometry x="-0.3889" y="-2" relative="1" as="geometry">
                        <mxPoint as="offset"/>
                    </mxGeometry>
                </mxCell>
                <mxCell id="wasfgfWo0gfHAaKg0Rm5-31" style="edgeStyle=orthogonalEdgeStyle;html=1;entryX=1;entryY=0.5;entryDx=0;entryDy=0;exitX=0.5;exitY=1;exitDx=0;exitDy=0;" parent="wasfgfWo0gfHAaKg0Rm5-2" source="wasfgfWo0gfHAaKg0Rm5-25" target="wasfgfWo0gfHAaKg0Rm5-23" edge="1">
                    <mxGeometry relative="1" as="geometry"/>
                </mxCell>
                <mxCell id="wasfgfWo0gfHAaKg0Rm5-32" style="edgeStyle=orthogonalEdgeStyle;html=1;entryX=1;entryY=0.5;entryDx=0;entryDy=0;exitX=0.5;exitY=0;exitDx=0;exitDy=0;" parent="wasfgfWo0gfHAaKg0Rm5-2" source="wasfgfWo0gfHAaKg0Rm5-12" target="wasfgfWo0gfHAaKg0Rm5-7" edge="1">
                    <mxGeometry relative="1" as="geometry"/>
                </mxCell>
                <mxCell id="wasfgfWo0gfHAaKg0Rm5-33" value="No" style="edgeLabel;html=1;align=center;verticalAlign=middle;resizable=0;points=[];" parent="wasfgfWo0gfHAaKg0Rm5-32" vertex="1" connectable="0">
                    <mxGeometry x="-0.5888" y="-1" relative="1" as="geometry">
                        <mxPoint as="offset"/>
                    </mxGeometry>
                </mxCell>
                <mxCell id="wasfgfWo0gfHAaKg0Rm5-34" style="edgeStyle=orthogonalEdgeStyle;html=1;entryX=0;entryY=0.5;entryDx=0;entryDy=0;" parent="wasfgfWo0gfHAaKg0Rm5-2" source="wasfgfWo0gfHAaKg0Rm5-12" target="wasfgfWo0gfHAaKg0Rm5-15" edge="1">
                    <mxGeometry relative="1" as="geometry"/>
                </mxCell>
                <mxCell id="wasfgfWo0gfHAaKg0Rm5-35" value="Yes" style="edgeLabel;html=1;align=center;verticalAlign=middle;resizable=0;points=[];" parent="wasfgfWo0gfHAaKg0Rm5-34" vertex="1" connectable="0">
                    <mxGeometry x="-0.3469" relative="1" as="geometry">
                        <mxPoint as="offset"/>
                    </mxGeometry>
                </mxCell>
                <mxCell id="wasfgfWo0gfHAaKg0Rm5-36" style="edgeStyle=orthogonalEdgeStyle;html=1;entryX=0;entryY=0.5;entryDx=0;entryDy=0;" parent="wasfgfWo0gfHAaKg0Rm5-2" source="wasfgfWo0gfHAaKg0Rm5-16" target="wasfgfWo0gfHAaKg0Rm5-18" edge="1">
                    <mxGeometry relative="1" as="geometry"/>
                </mxCell>
                <mxCell id="wasfgfWo0gfHAaKg0Rm5-37" value="Yes" style="edgeLabel;html=1;align=center;verticalAlign=middle;resizable=0;points=[];" parent="wasfgfWo0gfHAaKg0Rm5-36" vertex="1" connectable="0">
                    <mxGeometry x="-0.2632" relative="1" as="geometry">
                        <mxPoint as="offset"/>
                    </mxGeometry>
                </mxCell>
                <mxCell id="wasfgfWo0gfHAaKg0Rm5-38" style="edgeStyle=orthogonalEdgeStyle;html=1;entryX=0.5;entryY=1;entryDx=0;entryDy=0;exitX=0;exitY=0.5;exitDx=0;exitDy=0;" parent="wasfgfWo0gfHAaKg0Rm5-2" source="wasfgfWo0gfHAaKg0Rm5-8" target="wasfgfWo0gfHAaKg0Rm5-23" edge="1">
                    <mxGeometry relative="1" as="geometry">
                        <mxPoint x="73" y="380" as="targetPoint"/>
                        <Array as="points">
                            <mxPoint x="23" y="300"/>
                            <mxPoint x="23" y="480"/>
                            <mxPoint x="618" y="480"/>
                        </Array>
                    </mxGeometry>
                </mxCell>
                <mxCell id="wasfgfWo0gfHAaKg0Rm5-39" value="No" style="edgeLabel;html=1;align=center;verticalAlign=middle;resizable=0;points=[];" parent="wasfgfWo0gfHAaKg0Rm5-38" vertex="1" connectable="0">
                    <mxGeometry x="0.0025" y="2" relative="1" as="geometry">
                        <mxPoint as="offset"/>
                    </mxGeometry>
                </mxCell>
                <mxCell id="wasfgfWo0gfHAaKg0Rm5-40" style="edgeStyle=orthogonalEdgeStyle;html=1;entryX=1;entryY=0.5;entryDx=0;entryDy=0;" parent="wasfgfWo0gfHAaKg0Rm5-2" source="wasfgfWo0gfHAaKg0Rm5-16" target="wasfgfWo0gfHAaKg0Rm5-7" edge="1">
                    <mxGeometry relative="1" as="geometry"/>
                </mxCell>
                <mxCell id="wasfgfWo0gfHAaKg0Rm5-41" value="No" style="edgeLabel;html=1;align=center;verticalAlign=middle;resizable=0;points=[];" parent="wasfgfWo0gfHAaKg0Rm5-40" vertex="1" connectable="0">
                    <mxGeometry x="-0.6098" y="2" relative="1" as="geometry">
                        <mxPoint as="offset"/>
                    </mxGeometry>
                </mxCell>
            </root>
        </mxGraphModel>
    </diagram>
</mxfile>